<svg xmlns="http://www.w3.org/2000/svg" version="1.1" xmlns:xlink="http://www.w3.org/1999/xlink" xmlns:svgjs="http://svgjs.com/svgjs" width="250" height="250"><svg version="1.1" id="SvgjsSvg1001" xmlns="http://www.w3.org/2000/svg" xmlns:xlink="http://www.w3.org/1999/xlink" x="0px" y="0px" viewBox="0 0 250 250" enable-background="new 0 0 250 250" xml:space="preserve">
	<g>
		<path d="M130.5,42.3c-11.9-0.6-22.6-0.9-33.1-1.7c-10.3-0.8-20.5-2.2-30.7-3.1C60.3,37,54,36.5,47.8,38c-4.6,1.1-6.5,3.4-6.1,8.1
			c0.9,11.2,0.9,22.5,0.3,33.7c-0.5,8.7-1.2,17.4-1.9,26.1c-0.5,6.5-1,12.9-1.3,19.4c-0.5,11.1-0.7,22.2-1.4,33.3
			c-0.6,9.3-1.6,18.7-2.4,28c-0.5,5.6-1,11.3,0.3,16.9c0.3,1.5,0.9,2.9,1.6,4.2c1.6,3,4.3,4.1,7.6,3.7c2.8-0.4,5.6-0.7,8.4-0.8
			c2.5,0,5.1,0.1,7.5,0.6c4,0.7,8,0.7,12-0.1c2.8-0.6,2.8-0.5,3.8,2.2c1.7,4.8,3,9.6,3.5,14.7c0.5,6-0.9,11.3-5.2,15.7
			c-2.4,2.5-5.4,3-8.6,3.2c-9.5,0.5-19,0.9-28.4,1.4c-5.5,0.3-10.9,1-16.4,1.4c-4,0.3-8,0.4-11.9-0.5c-5.2-1.3-8.6-5.3-8.6-10.8
			c0-10.8,0.3-21.7,0.3-32.5c0-6.9-0.1-13.7-0.1-20.6c0-7.5,0-14.9,0-22.4c0-11.3,0-22.6,0-33.9c-0.1-13-0.2-26-0.3-38.9
			c-0.1-14.3-0.3-28.7-0.4-43c0-4.1-0.2-8.3,0.1-12.4c1-16.4,10.5-27.4,26.4-30.6C32.3,2.9,38,3.4,43.7,3.4
			c12.1-0.1,24.2,0,36.2-0.3C89,2.6,98.2,2,107.3,1.6c9.8-0.5,19.6-1.2,29.4-1.5c2.9-0.1,5.9,0.5,8.7,1.3c5.5,1.6,7.6,4.4,7,10.6
			c-0.7,7-0.9,14.1-1,21.2c-0.1,5-1.3,7-6.2,7.7C139.9,41.6,134.5,41.9,130.5,42.3z"></path>
		<path d="M96.4,211.7c5.3,0,10.5,0.2,15.7,0c9.9-0.4,19.8-0.9,29.7-1.5c6.2-0.4,12.4-0.9,18.5-1.4c1.8-0.1,3.6-0.6,5.5-0.6
			c4.5,0.1,9,0.5,13.5,0.7c5.4,0.3,10.9,0.8,16.3,0.8c2.8,0,5.6-1,8.3-1.9c2.6-0.9,4-3,4.8-5.6c1.5-4.8,1.8-9.8,1.7-14.7
			c-0.1-20.5-0.2-40.9-0.5-61.3c-0.2-12.5-0.7-25.1-0.9-37.6c-0.1-6,0.6-12,0.9-17.9c0.3-6.5-0.5-12.9-2-19.3c-0.5-2-1-3.9-1.6-5.8
			c-1.5-4.5-5-7.3-9.7-7.2c-3.6,0.1-7.2,0.9-10.7,1.1c-2.7,0.1-5.6,0.3-8.2-0.4c-4.3-1-6.5-4.6-6.9-10.1c-0.2-3.3-0.6-6.6-0.8-9.9
			c-0.2-4,0.1-8,1.7-11.7c1.6-3.7,4.4-5.7,8.5-5.5c6.4,0.3,12.7,0.7,19.1,0.7c4.9,0,9.9-0.8,14.8-0.5c5.7,0.3,11.5,0.8,17.1,1.9
			c6.6,1.3,10.7,5.9,13.5,11.9c2.5,5.4,3.1,11.2,3.1,17c0.1,9.4,0,18.8,0.1,28.2c0.1,15.2,0.2,30.3,0.4,45.5
			c0.1,7.6,0.3,15.2,0.6,22.7c0.3,6.7,0.9,13.5,1.1,20.2c0.1,4.2-0.2,8.5-0.6,12.7c-0.5,6.2-1.3,12.5-1.8,18.7
			c-0.7,8.1-1.3,16.2-1.8,24.3s0.2,16.2,1.9,24.2c0.8,3.9,1,7.9-0.2,11.8c-1.3,4.5-4.4,6.8-8.8,8c-4.3,1.2-8.6,0.3-12.8-0.2
			c-4.8-0.5-9.5-1.1-14.3-1.5c-8.3-0.7-16.5-1.4-24.8-1.9c-6.9-0.4-13.9-0.7-20.9-0.8c-9.2-0.1-18.3,0-27.5,0
			c-7.1,0-14.1,1.3-21.1,2.7c-3.8,0.8-7.8,0.9-11.7,1.2c-0.5,0-1.1,0-1.6-0.1c-4.6-0.9-5.8-2.9-4.8-7.5c0.9-3.9,1.9-7.7,2.2-11.6
			c0.5-5.6-1.4-10.7-4.2-15.5c-0.3-0.5-0.5-0.9-0.8-1.4C96.4,212.5,96.4,212.4,96.4,211.7z"></path>
		<path d="M172.6,62.5c0.1,3.9-0.3,7.5-1.4,10.9c-2.3,7.7-7.3,12.4-15.2,14.2c-7,1.6-14,2.6-21.1,2.8c-7,0.2-14,0.2-21,0.3
			c-0.4,0-0.8,0.1-1.4,0.1c0,2,0,3.9,0,5.8c0.1,3.4,0.2,6.7,0.3,10.1c0,0.9,0.3,1.5,1.2,1.8c7.3,2.6,14.8,4.2,22.7,3.5
			c5.4-0.5,10.7-1.2,16-1.8c1.3-0.1,2.6-0.2,3.8,0c2,0.4,2.7,1.7,2.3,3.7c-0.7,3.6-3,6.2-5.2,8.9c-6.2,7.5-14.5,11.1-23.8,12.4
			c-2.6,0.4-5.2,1-7.7,1.8c-6.4,2.1-9.6,7.1-10.6,13.4c-0.6,4.5-0.5,9.1-0.5,13.7c-0.1,5.2,0.2,10.4,0,15.6
			c-0.1,2.9-1.7,5.4-4.4,6.8c-1.1,0.5-2.2,0.6-3.1-0.4c-0.9-0.9-1.9-1-3.1-0.7c-4.2,1-8.4,1.6-12.6,0.6c-7-1.6-10.3-5.4-10.6-12.6
			c-0.4-9.4-0.6-18.9-0.7-28.3c-0.1-14.3,0-28.7,0.1-43c0-8.1,0-16.1,0.2-24.2c0.1-6,3.6-9.7,8.8-11.9c4.2-1.7,8.7-2.4,13.1-2.5
			c11.8-0.3,23.5-0.3,35.3-0.4c10.4-0.1,20.7-0.2,31.1-0.3C167.5,62.8,170,62.6,172.6,62.5z"></path>
	</g>
	<style>
		@media (prefers-color-scheme: light) { :root { filter: none; } }
		@media (prefers-color-scheme: dark) { :root { filter: invert(100%); } }
	</style>
</svg>