<svg xmlns="http://www.w3.org/2000/svg" width="32px" height="32px" viewBox="0 0 32 32">
  <g stroke="#232626" stroke-linecap="round" stroke-linejoin="round">
    <linearGradient id="SVGID_1_" gradientUnits="userSpaceOnUse" x1="3.5035" y1="14.4401" x2="24.4827" y2="14.4401" gradientTransform="matrix(0.9903 0.1388 -0.1388 0.9903 2.3751 -2.0655)">
      <stop offset="0" style="stop-color:#91C840"/>
      <stop offset="0.2395" style="stop-color:#FEE740"/>
      <stop offset="0.7548" style="stop-color:#EEE240"/>
      <stop offset="1" style="stop-color:#91C840"/>
    </linearGradient>
    <path fill="url(#SVGID_1_)" d="M3.7,17.03c-0.17,0.11-0.34,0.21-0.51,0.32c0.32,1.05,1.24,3.52,3.65,5.09c3.79,2.47,8.26,0.76,9.99,0.1
      c0.39-0.15,4.55-1.8,6.91-5.8c1.2-2.03,1.21-3.44,1.2-3.87c-0.01-0.42-0.07-1.79-0.98-3.16c-0.4-0.61-0.85-1.03-1.17-1.3
      c-0.19-1.05-0.37-2.1-0.56-3.15c-0.18,0.02-0.37,0.04-0.55,0.06c0.13,1.01,0.25,2.02,0.38,3.04c-0.01,0.86-0.12,2.1-0.59,3.5
      c-0.24,0.73-1.01,2.96-3.08,4.84c-3.48,3.16-7.88,2.83-8.58,2.77C6.78,19.19,4.65,17.76,3.7,17.03z"
    />
    <linearGradient id="SVGID_2_" gradientUnits="userSpaceOnUse" x1="6.8039" y1="15.1776" x2="26.4014" y2="15.1776" gradientTransform="matrix(0.9903 0.1388 -0.1388 0.9903 2.3751 -2.0655)">
      <stop offset="0" style="stop-color:#91C840"/>
      <stop offset="0.2395" style="stop-color:#FEE740"/>
      <stop offset="0.7548" style="stop-color:#EEE240"/>
      <stop offset="1" style="stop-color:#91C840"/>
    </linearGradient>
    <path fill="url(#SVGID_2_)" d="M6.52,20.15c-0.15,0.13-0.3,0.27-0.44,0.4c0.5,0.98,1.84,3.25,4.48,4.38c4.16,1.77,8.27-0.69,9.85-1.64
      c0.36-0.21,4.16-2.56,5.79-6.92c0.83-2.21,0.59-3.6,0.5-4.02c-0.08-0.41-0.38-1.75-1.51-2.94c-0.5-0.53-1.01-0.87-1.38-1.07
      c-0.37-1-0.73-2-1.1-3c-0.18,0.05-0.36,0.1-0.53,0.16c0.3,0.97,0.6,1.95,0.9,2.92c0.14,0.85,0.24,2.09,0.03,3.55
      c-0.11,0.76-0.47,3.09-2.18,5.31c-2.87,3.72-7.27,4.17-7.96,4.23C9.93,21.74,7.58,20.7,6.52,20.15z"
    />
    <linearGradient id="SVGID_3_" gradientUnits="userSpaceOnUse" x1="9.385" y1="21.8486" x2="28.344" y2="10.9025" gradientTransform="matrix(0.9903 0.1388 -0.1388 0.9903 2.3751 -2.0655)">
      <stop offset="0" style="stop-color:#91C840"/>
      <stop offset="0.2395" style="stop-color:#FEE740"/>
      <stop offset="0.7548" style="stop-color:#EEE240"/>
      <stop offset="1" style="stop-color:#91C840"/>
    </linearGradient>
    <path fill="url(#SVGID_3_)" d="M9.89,22.59c-0.12,0.16-0.25,0.31-0.37,0.47c0.66,0.88,2.37,2.89,5.17,3.54c4.4,1.03,8.02-2.1,9.42-3.32
      c0.32-0.27,3.66-3.24,4.51-7.81c0.43-2.32-0.04-3.65-0.2-4.05c-0.15-0.39-0.67-1.66-2-2.64c-0.59-0.44-1.15-0.68-1.55-0.82
      c-0.53-0.92-1.07-1.85-1.6-2.77c-0.17,0.08-0.33,0.16-0.5,0.25c0.46,0.91,0.93,1.82,1.39,2.72c0.28,0.81,0.6,2.01,0.64,3.49
      c0.02,0.77,0.06,3.13-1.24,5.6c-2.19,4.16-6.44,5.36-7.12,5.53C13.52,23.57,11.03,22.95,9.89,22.59z"
    />
  </g>
</svg>
