<svg xmlns="http://www.w3.org/2000/svg" viewBox="0 0 32 32">
  <g fill="none" stroke-linecap="round" stroke-linejoin="round">
    <g stroke="#232626" stroke-width="0.25">
      <path d="M24.09 7.35L21.77 5l-.32.41 2.09 2.32c.25.52 2.51 5.52-.16 10.38a11.65 11.65 0 01-11.8 5.69l-.37-.06-.26.43.23.33A8 8 0 0013 25.88 9.68 9.68 0 0016.75 27c3.06.17 7.24-2.2 9.48-6 2.52-4.25 2.82-10.68-.16-12.86a4.41 4.41 0 00-1.98-.79z"/>
      <path d="M23.25 7.92C22.64 7 22 6.1 21.44 5.18l-.4.34c.53.9 1.06 1.8 1.58 2.7.14.56 1.34 5.91-2.27 10.13a11.66 11.66 0 01-12.7 3.17l-.36-.13-.29.36.15.37a6.59 6.59 0 005.33 3.45"/>
      <path d="M22.68 8.41l-1.17-3.06-.51.24c.32 1 .65 2 1 3 0 .58 0 6.06-4.4 9.41a11.68 11.68 0 01-13.09.36l-.32-.21-.41.29.07.39A6 6 0 005.68 22a6.9 6.9 0 002.44 1.56"/>
    </g>
    <g stroke-width="1">
      <path d="M18.6,25.8c0,0,3.6-0.5,6.5-4.7" stroke="#91c840"/>
      <path d="M20,24.3c0,0,3.4-1.2,5.5-5.8" stroke="#d1dd30"/>
      <path d="M21.2,22.5c0,0,2.9-1.8,4.2-6.8" stroke="#fee740"/>
    </g>
  </g>
</svg>