<svg xmlns="http://www.w3.org/2000/svg" viewBox="0 0 32 32">
  <g fill="none" stroke-linecap="round" stroke-linejoin="round" stroke-width="1">
    <g stroke="#353535">
      <path d="M8.79,14.77l2.5,14.88a13.56,13.56,0,0,1,9.74,0l2.4-14.89a17.21,17.21,0,0,1-4.57,1.45A17.55,17.55,0,0,1,8.79,14.77Z"/>
      <path d="M10.48,15,8.79,4.11a4.1,4.1,0,0,1,3.12,4.27l.83,7.68"/>
      <path d="M9.14,14.93A10.43,10.43,0,0,0,8.56,12C8,10.41,7.24,9.5,7.47,9.28s.63,0,2.3,1.17"/>
      <path d="M11.21,5.48a4.36,4.36,0,0,0-.16-2.33c-.43-1.47,2,1,2,1L14,7.64"/>
      <path d="M12.74,12.22a2.58,2.58,0,0,1,2.18,2l.16,2.08"/>
      <path d="M13.72,12.38V7.89c.61-.22,1.48-.43,2,0s.22,1.36.05,3.79-.05,4.67-.05,4.67h0"/>
      <path d="M13.45,5s1.34-.22,1.63.72l.44,2.05"/>
      <path d="M14.87,5.16l-.51-2.09s.37-1.09,1.75-.59l.63,2.68"/>
      <path d="M16,8.5A2.05,2.05,0,0,1,16.74,8a2.33,2.33,0,0,1,1.66-.08c0,1.55-.11,3.19-.24,4.89-.09,1.22-.21,2.4-.35,3.54"/>
      <path d="M17.57,7.64l-.11-3.88.94-.69,1,.14s.92,3.59-.3,13"/>
      <path d="M17.46,5.64l-1,.67-.38,1.63"/>
      <path d="M22.25,9.11c0-1.45,0-2.91-.05-4.36a2,2,0,0,0-1-.82,1.94,1.94,0,0,0-.86-.11,4.34,4.34,0,0,1,.46.86,5.29,5.29,0,0,1,.29,1.79,14.73,14.73,0,0,1-1.5,5.26"/>
      <path d="M22.29,15.16l.57-2.52a1.7,1.7,0,0,0-1.79-.42L19.6,13.39"/>
      <path d="M23.19,14.52l1.39-6.31-2.33,1-.51,2.85"/>
    </g>
    <g stroke="#ED7F26">
      <path d="M19,20.16H13.21a2.32,2.32,0,0,1,.62-.35,6,6,0,0,1,2.22-.3,5.92,5.92,0,0,1,2.23.27A2.29,2.29,0,0,1,19,20.16Z"/>
      <path d="M13.19,25.36H19a3.22,3.22,0,0,1-.63.18,12.23,12.23,0,0,1-2.23.15,12.1,12.1,0,0,1-2.24-.14A2.91,2.91,0,0,1,13.19,25.36Z"/>
    </g>
    <g stroke="#DE2927">
      <line x1="13.19" y1="21.5" x2="19.02" y2="21.5"/>
      <path d="M13.19,23,19,23V24l-5.83,0Z"/>
    </g>
  </g>
</svg>