<svg xmlns="http://www.w3.org/2000/svg" width="32px" height="32px" viewBox="0 0 32 32">
  <g stroke-linecap="round" stroke-linejoin="round">
    <g stroke="#232626" stroke-width="0.75">
      <g fill="#FFC817">
        
        <path d="M14.87,5.16c-0.17-0.7-0.34-1.39-0.51-2.09c0,0,0.37-1.09,1.75-0.59l0.63,2.68c0.21,1.9,0.42,3.8,0.64,5.7
          c-0.23,0.25-0.47,0.5-0.7,0.75C16.07,9.46,15.47,7.31,14.87,5.16z"/>
        <path d="M11.21,5.48c0.05-1.03-0.05-1.8-0.16-2.33c-0.04-0.18-0.09-0.37,0-0.44c0.33-0.25,2,1.44,2,1.44L14,7.64
          c0.06,3.28,0.13,6.56,0.19,9.83c-0.5-0.08-1.01-0.17-1.51-0.25C12.19,13.31,11.7,9.39,11.21,5.48z"/>
        <path d="M13.45,5c0.15-0.03,0.41-0.07,0.71,0.01c0.57,0.15,0.86,0.6,0.92,0.71l0.44,2.05c0.15,3.49,0.31,6.97,0.46,10.46
          c-0.6-0.25-1.19-0.5-1.79-0.75C13.94,13.32,13.7,9.16,13.45,5z"/>
        <path d="M17.57,7.64c-0.04-1.29-0.07-2.59-0.11-3.88l0.94-0.69l1,0.14c-0.1,4.33-0.2,8.67-0.3,13c-0.43,0.05-0.86,0.09-1.29,0.14
          C17.73,13.45,17.65,10.54,17.57,7.64z"/>
        <path d="M17.46,5.64c-0.33,0.22-0.67,0.45-1,0.67l-0.38,1.63c0.41,0.32,0.83,0.64,1.24,0.96C17.37,7.81,17.41,6.73,17.46,5.64z"/>
        <path d="M16,8.5c0.16-0.15,0.4-0.36,0.74-0.5c0.74-0.31,1.42-0.15,1.66-0.08c0,1.55-0.11,3.19-0.24,4.89c-0.09,1.22-0.21,2.4-0.35,3.54
          c-0.87,0.1-1.74,0.21-2.61,0.31C15.46,13.94,15.73,11.22,16,8.5z"/>
        <path d="M22.25,9.11c0-0.72,0-1.44-0.01-2.18c-0.01-0.74-0.02-1.46-0.04-2.18c-0.23-0.38-0.59-0.66-1-0.82
          c-0.27-0.1-0.57-0.14-0.86-0.11c0.19,0.27,0.34,0.56,0.46,0.86c0,0,0.3,0.77,0.29,1.79c-0.01,1.06-0.47,2.98-1.5,5.26
          c-0.11,1.76-0.21,3.51-0.32,5.27C20.27,14.37,21.26,11.74,22.25,9.11z"/>
        <path d="M23.19,14.52c0.46-2.1,0.93-4.21,1.39-6.31l-2.33,1l-0.51,2.85c-0.24,1.73-0.47,3.46-0.71,5.19
          C21.75,16.34,22.47,15.43,23.19,14.52z"/>
        <path d="M21.26,17.75c0.28-1.69,0.55-3.39,0.83-5.08c-0.46-0.48-1.16-0.64-1.79-0.42c0.01,1.37,0.01,2.74,0.02,4.11
          C20.63,16.83,20.94,17.29,21.26,17.75z"/>
        <path d="M13.72,12.38V7.89c0.61-0.22,1.48-0.43,2,0s0.22,1.36,0.05,3.79s-0.05,4.67-0.05,4.67l0,0"/>
        <path d="M12.74,12.22c0.22,0.03,0.84,0.14,1.41,0.66c0.56,0.52,0.73,1.12,0.77,1.34c0.06,1.4,0.13,2.8,0.19,4.2
          c-0.71-0.05-1.41-0.09-2.12-0.14C12.91,16.26,12.82,14.24,12.74,12.22z"/>
        <path d="M9.14,14.93C9.1,14.22,8.98,13.18,8.56,12C8,10.41,7.24,9.51,7.47,9.28c0.14-0.14,0.63-0.03,2.3,1.17
          c0.59,2.32,1.18,4.65,1.77,6.97C10.74,16.59,9.94,15.76,9.14,14.93z"/>
        <path d="M10.48,15C9.92,11.37,9.35,7.74,8.79,4.11c1.94,0.47,3.26,2.28,3.12,4.27l0.83,7.68c0.07,0.83,0.15,1.67,0.22,2.5
          c-0.75-0.03-1.51-0.06-2.26-0.08C10.63,17.32,10.55,16.16,10.48,15z"/>
      </g>
      <path fill="#FFFFFF" d="M8.79,14.77l2.5,14.88c3.13-1.21,6.61-1.21,9.74,0l2.4-14.89c-1.45,0.69-2.99,1.18-4.57,1.45
        C15.43,16.73,11.93,16.23,8.79,14.77z"/>
    </g>
    <g fill="none" stroke="#ED7F26">
      <path d="M19,20.16h-5.79c0.19-0.15,0.4-0.27,0.62-0.35c0.71-0.24,1.47-0.34,2.22-0.3c0.75-0.05,1.51,0.04,2.23,0.27
        C18.54,19.86,18.78,19.99,19,20.16z"/>
      <path d="M13.19,25.36H19c-0.2,0.08-0.41,0.14-0.63,0.18c-0.74,0.12-1.48,0.17-2.23,0.15c-0.75,0.02-1.5-0.02-2.24-0.14
        C13.66,25.52,13.42,25.45,13.19,25.36z"/>
    </g>
    <g fill="none" stroke="#DE2927">
      <line x1="13.19" y1="21.5" x2="19.02" y2="21.5"/>
      <path d="M13.19,23H19v1h-5.83L13.19,23z"/>
    </g>
  </g>
</svg>
