<svg xmlns="http://www.w3.org/2000/svg" width="32px" height="32px" viewBox="0 0 32 32">
  <g>
    <path fill="#F0B707" d="M12.69,27.21V15.65c0.09-1.09,0.5-2.14,1.18-3l0.1-1.14c0.2-1.79,0.4-3.57,0.59-5.36
      c0.98-0.01,1.95-0.03,2.93-0.05c0.2,1.82,0.39,3.64,0.59,5.46c-0.01,0.14-0.03,0.34-0.01,0.58c0.02,0.19,0.05,0.39,0.11,0.58
      c0.24,0.87,0.77,1.17,1,2.12c0.08,0.27,0.12,0.56,0.12,0.84v11.52c0.05,0.58-0.27,1.14-0.81,1.37c-0.76,0.24-1.55,0.36-2.35,0.37
      c-0.83,0.01-1.66-0.12-2.46-0.37c-0.65-0.1-1.09-0.71-0.99-1.36C12.69,27.22,12.69,27.21,12.69,27.21z"/>
    <path fill="none" stroke="#232626" stroke-width="0.75" stroke-linecap="round" stroke-linejoin="round" d="M12.69,27.21V15.65
      c0.09-1.09,0.5-2.14,1.18-3l0.1-1.14L14.69,5l-0.18-0.2l0.22-1.2l-0.08-0.52h2.71l-0.05,0.51l0.15,1.13L17.37,5l0.71,6.57
      c-0.04,0.39-0.01,0.78,0.1,1.16c0.24,0.87,0.77,1.17,1,2.12c0.08,0.27,0.12,0.56,0.12,0.84v11.52c0.05,0.58-0.27,1.14-0.81,1.37
      c-0.76,0.24-1.55,0.36-2.35,0.37c-0.83,0.01-1.66-0.12-2.46-0.37c-0.65-0.1-1.09-0.71-0.99-1.36
      C12.69,27.22,12.69,27.21,12.69,27.21z"/>
    <rect x="13.69" y="17.5" fill="none" stroke="#3FA548" stroke-width="1.2" stroke-linecap="round" stroke-linejoin="round" width="4.62" height="7.77"/>
    <g fill="none" stroke="#E01D43" stroke-width="1.2" stroke-linecap="round" stroke-linejoin="round">
      <circle cx="16.88" cy="17.14" r="0.04"/>
      <circle cx="15.07" cy="17.14" r="0.04"/>
      <path d="M17.75,20.05l-3.5,0.72c-0.31,0-0.56-0.25-0.56-0.56v-1.35c0.01-0.31,0.25-0.55,0.56-0.55h3.5c0.31,0,0.55,0.24,0.56,0.55v0.63
        C18.31,19.8,18.06,20.05,17.75,20.05z"
      />
      <circle cx="15.95" cy="24.23" r="0.36"/>
      <circle cx="15.95" cy="16.98" r="0.2"/>
    </g>
  </g>
</svg>
