<svg xmlns="http://www.w3.org/2000/svg" viewBox="0 0 32 32">
  <g fill="none" stroke-linecap="round" stroke-linejoin="round">
    <path d="M12.69,27.21V15.65a5.62,5.62,0,0,1,1.18-3l.1-1.14L14.69,5l-.18-.2.22-1.2-.08-.52,2.71,0-.05.51.15,1.13L17.37,5l.71,6.57a3.06,3.06,0,0,0,.1,1.16c.24.87.77,1.17,1,2.12a3.18,3.18,0,0,1,.12.84V27.21a1.36,1.36,0,0,1-.81,1.37,8,8,0,0,1-2.35.37,7.91,7.91,0,0,1-2.46-.37A1.19,1.19,0,0,1,12.69,27.21Z" stroke="#232626" stroke-width="0.5"/>
    <rect x="13.69" y="17.5" width="4.62" height="7.77" stroke="#3fa548" stroke-width="1.2"/>
    <g stroke="#E01D43" stroke-width="1.2">
      <circle cx="16.88" cy="17.14" r="0.04"/>
      <circle cx="15.07" cy="17.14" r="0.04"/>
      <path d="M17.75,20.05l-3.5.72a.56.56,0,0,1-.56-.56V18.86a.56.56,0,0,1,.56-.55h3.5a.56.56,0,0,1,.56.55v.63A.56.56,0,0,1,17.75,20.05Z"/>
      <circle cx="15.95" cy="24.23" r="0.36"/>
      <circle cx="15.95" cy="16.98" r="0.2"/>
    </g>
  </g>
</svg>