<svg xmlns="http://www.w3.org/2000/svg" width="32px" height="32px" viewBox="0 0 32 32">
  <g>
    <path fill="#232626" stroke="#232626" stroke-width="0.5" stroke-linecap="round" stroke-linejoin="round" d="M17.35,22.38
      c-0.68-0.11-0.7,0.09-1.58,0.08c-0.61-0.01-1.48-0.02-2.18-0.58c-0.27-0.21-0.41-0.43-0.54-0.62c-0.66-1-0.26-1.57-0.86-2.4
      c-0.06-0.09-0.33-0.34-0.86-0.86c-0.47-0.46-0.6-0.56-0.79-0.8c-0.35-0.45-0.47-0.89-0.59-1.1c-1.3-2.24-0.48-5.6-0.47-5.6
      c0,0,0,0,0,0.01c-0.38,2.13-0.27,4.32,0.33,6.4c0.48,1.2,0.8,2.46,0.96,3.74c0.08,1.38-0.14,2.75-0.65,4.03
      c-0.27,0.92-0.92,1.68-1.78,2.11c-1.14,0.49-2.45,0.32-3.42-0.44c-0.22-0.52-0.36-1.06-0.41-1.62c-0.09-1.2,0.21-2.4,0.84-3.42
      c0-0.35-0.03-0.7-0.1-1.05c-0.42-1.41-0.99-2.76-1.71-4.05c0.07-0.38,0.19-0.95,0.42-1.61c0.27-0.82,1.36-3.76,4.34-5.92
      c0.38-0.27,0.9-0.62,1.57-0.96c2.44-2.27,3.55-2.66,4.37-2.56c0.17,0.02,0.72,0.11,1.49,0.09c0.96-0.03,1.62-0.22,1.85-0.27
      c0.79-0.16,2.11,0.17,4.37,2.48c0.46,0.25,0.93,0.5,1.39,0.76c2.46,1.57,4.26,3.97,5.09,6.76c0.11,1.29-0.05,2.58-0.46,3.8
      c-0.23,0.68-0.54,1.32-0.93,1.93c0.25,0.76,0.4,1.56,0.44,2.36c0.24,1.32-0.15,2.67-1.06,3.66c0,0-3.85,0.77-4.93-2.01
      c-0.16-0.76-0.33-1.92-0.31-3.32c0.03-2.2,0.53-3.5,1.08-6.1c0.65-3.07,0.74-4.96,0.78-4.96c0.03,0-0.17,1.04-0.59,4.01
      c-0.01,0.09-0.13,0.95-0.55,1.91c-0.31,0.71-0.56,0.98-0.76,1.14c-0.19,0.16-0.3,0.18-0.49,0.38c-0.2,0.21-0.41,0.49-0.56,0.94
      c-0.36,1.04,0.07,1.43-0.3,2.51c-0.15,0.44-0.33,0.68-0.51,0.85c-0.12,0.11-0.41,0.35-0.82,0.43
      C18.03,22.58,17.79,22.46,17.35,22.38z"/>
    <g fill="#A06427" >
      <path d="M18.46,22.51c-0.55,0.15-0.77-0.17-1.56-0.22c-0.63-0.04-0.6,0.16-1.27,0.17c-0.28,0-1.34,0-2.17-0.75
        c-0.34-0.31-0.53-0.64-0.63-0.84c-0.27-0.55-0.25-0.98-0.29-1.29c-0.16-1.17-1.28-1.08-2.26-2.71c-0.34-0.56-0.52-1.07-0.64-1.4
        c-0.05-0.15-0.28-0.82-0.39-1.72c-0.04-0.31-0.07-0.62,0-0.64c0.12-0.04,0.24,0.76,0.79,1.36c0.71,0.77,1.26,0.3,3.28,1.11
        c0.28,0.11,0.68,0.29,0.95,0.11c0.26-0.17,0.2-0.54,0.59-0.9c0.15-0.13,0.28-0.25,0.39-0.22c0.31,0.08,0.13,1.07,0.41,2.37
        c0.05,0.21,0.4,1.83,0.96,1.86c0.25,0.01,0.45-0.29,0.56-0.46c0.27-0.4,0.31-0.82,0.32-1.49c0.02-1.4-0.12-2.13,0.09-2.2
        c0.08-0.03,0.18,0.06,0.3,0.16c0.43,0.38,0.34,0.84,0.63,1.02c0.2,0.13,0.46,0.04,0.88-0.11c1.31-0.47,1.96-0.71,2.13-0.86
        c0.89-0.79,0.89-2.01,1-1.99c0.1,0.02,0.03,0.87-0.16,1.75c-0.13,0.61-0.26,1.21-0.59,1.87c-0.72,1.44-1.44,1.19-1.71,2.22
        c-0.23,0.87,0.13,1.52-0.3,2.51c-0.1,0.24-0.25,0.48-0.45,0.7C19.21,22.07,18.9,22.39,18.46,22.51z"/>
      <path d="M13.7,8.81c0.15,0.04,0.24,0.13,0.43,0.29c0.07,0.06,0.13,0.11,0.11,0.16c-0.01,0.02-0.04,0.04-0.07,0.05
        c-0.09,0.05-0.12,0.11-0.18,0.17c-0.03,0.03-0.16,0.17-0.34,0.22c-0.16,0.04-0.3-0.01-0.48-0.08c-0.03-0.01-0.07-0.03-0.1-0.06
        c0,0-0.05-0.05-0.08-0.14c-0.04-0.16,0.06-0.54,0.35-0.64C13.47,8.74,13.58,8.78,13.7,8.81z"/>
      <path d="M18.53,8.86c-0.14,0.08-0.21,0.18-0.35,0.38c-0.05,0.07-0.1,0.14-0.07,0.18c0.01,0.02,0.04,0.03,0.08,0.03
        c0.1,0.03,0.14,0.08,0.21,0.12c0.03,0.02,0.19,0.13,0.38,0.13c0.17,0,0.29-0.08,0.45-0.19c0.02-0.02,0.06-0.04,0.08-0.08
        c0,0,0.04-0.06,0.05-0.15c0.01-0.16-0.18-0.52-0.48-0.54C18.73,8.74,18.63,8.8,18.53,8.86z"/>
    </g>
    <g stroke="#383838" stroke-width="0.5" stroke-linecap="round" stroke-linejoin="round">
      <path fill="#232626" d="M16.68,21.03
        c-0.61-0.59-1.22-1.17-1.84-1.76c0.76-0.62,1.14-0.67,1.35-0.58c0.07,0.03,0.23,0.12,0.45,0.12c0.2,0,0.34-0.08,0.4-0.11
        c0.21-0.09,0.58-0.04,1.34,0.55C17.82,19.84,17.25,20.44,16.68,21.03z"/>
      <path fill="none" d="M12.08,16.08
        c0.29,0.36,0.66,0.94,0.78,1.71c0.16,1.02-0.27,1.41-0.06,2.34c0.04,0.19,0.3,1.25,1.28,1.86c1.14,0.72,2.4,0.3,2.59,0.23
        c0-0.4,0-0.4,0.01-1.19c-0.01,0.79-0.01,0.79-0.01,1.19c0.12,0.05,1.37,0.51,2.33-0.2c0.73-0.54,0.85-1.42,0.87-1.58
        c0.15-1.11-0.55-1.56-0.47-2.72c0.05-0.66,0.33-1.17,0.53-1.48"/>
      <path fill="#FFFFFF" d="M13.45,10.89
        c0.2,0.24,0.26,0.48,0.39,0.96c0.05,0.17,0.08,0.33,0,0.39c-0.04,0.03-0.1,0.02-0.17,0.01c-0.2-0.02-0.32,0.05-0.48,0.08
        c-0.08,0.02-0.45,0.11-0.81-0.02c-0.31-0.12-0.48-0.35-0.71-0.68c-0.03-0.05-0.08-0.12-0.1-0.21c0,0-0.03-0.15,0.02-0.32
        c0.1-0.31,0.7-0.84,1.29-0.67C13.15,10.52,13.3,10.7,13.45,10.89z"/>
      <path fill="#FFFFFF" d="M18.83,10.89
        c-0.2,0.24-0.26,0.48-0.39,0.96c-0.05,0.17-0.08,0.33,0,0.39c0.04,0.03,0.1,0.02,0.17,0.01c0.2-0.02,0.32,0.05,0.48,0.08
        c0.08,0.02,0.45,0.11,0.81-0.02c0.31-0.12,0.48-0.35,0.71-0.68c0.03-0.05,0.08-0.12,0.1-0.21c0,0,0.03-0.15-0.02-0.32
        c-0.1-0.31-0.7-0.84-1.29-0.67C19.13,10.52,18.98,10.7,18.83,10.89z"/>
    </g>
    <g fill="#383838" stroke="#232626" stroke-width="0.5" stroke-linecap="round" stroke-linejoin="round">
      <circle cx="19.5" cy="11.46" r="0.57"/>
      <circle cx="12.81" cy="11.46" r="0.57"/>
    </g>
  </g>
</svg>
