<svg xmlns="http://www.w3.org/2000/svg" viewBox="0 0 32 32">
  <g fill="none" stroke-linecap="round" stroke-linejoin="round">
    <g stroke="#232626" stroke-width="0.25">
      <path d="M17.35,22.38c-0.68-0.11-0.7,0.09-1.58,0.08c-0.61-0.01-1.48-0.02-2.18-0.58c-0.27-0.21-0.41-0.43-0.54-0.62
        c-0.66-1-0.26-1.57-0.86-2.4c-0.06-0.09-0.33-0.34-0.86-0.86c-0.47-0.46-0.6-0.56-0.79-0.8c-0.35-0.45-0.47-0.89-0.59-1.1
        c-1.3-2.24-0.48-5.6-0.47-5.6c0,0,0,0,0,0.01c-0.38,2.13-0.27,4.32,0.33,6.4c0.48,1.2,0.8,2.46,0.96,3.74c0.08,1.38-0.14,2.75-0.65,4.03
        c-0.27,0.92-0.92,1.68-1.78,2.11c-1.14,0.49-2.45,0.32-3.42-0.44c-0.22-0.52-0.36-1.06-0.41-1.62c-0.09-1.2,0.21-2.4,0.84-3.42
        c0-0.35-0.03-0.7-0.1-1.05c-0.42-1.41-0.99-2.76-1.71-4.05c0.07-0.38,0.19-0.95,0.42-1.61c0.27-0.82,1.36-3.76,4.34-5.92
        c0.38-0.27,0.9-0.62,1.57-0.96c2.44-2.27,3.55-2.66,4.37-2.56c0.17,0.02,0.72,0.11,1.49,0.09c0.96-0.03,1.62-0.22,1.85-0.27
        c0.79-0.16,2.11,0.17,4.37,2.48c0.46,0.25,0.93,0.5,1.39,0.76c2.46,1.57,4.26,3.97,5.09,6.76c0.11,1.29-0.05,2.58-0.46,3.8
        c-0.23,0.68-0.54,1.32-0.93,1.93c0.25,0.76,0.4,1.56,0.44,2.36c0.24,1.32-0.15,2.67-1.06,3.66c0,0-3.85,0.77-4.93-2.01
        c-0.16-0.76-0.33-1.92-0.31-3.32c0.03-2.2,0.53-3.5,1.08-6.1c0.65-3.07,0.74-4.96,0.78-4.96c0.03,0-0.17,1.04-0.59,4.01
        c-0.01,0.09-0.13,0.95-0.55,1.91c-0.31,0.71-0.56,0.98-0.76,1.14c-0.19,0.16-0.3,0.18-0.49,0.38c-0.2,0.21-0.41,0.49-0.56,0.94
        c-0.36,1.04,0.07,1.43-0.3,2.51c-0.15,0.44-0.33,0.68-0.51,0.85c-0.12,0.11-0.41,0.35-0.82,0.43C18.03,22.58,17.79,22.46,17.35,22.38z"/>
      <path d="M16.68,21.03c-0.61-0.59-1.22-1.17-1.84-1.76c0.76-0.62,1.14-0.67,1.35-0.58c0.07,0.03,0.23,0.12,0.45,0.12
        c0.2,0,0.34-0.08,0.4-0.11c0.21-0.09,0.58-0.04,1.34,0.55C17.82,19.84,17.25,20.44,16.68,21.03z"/>
      <path d="M12.08,16.08c0.29,0.36,0.66,0.94,0.78,1.71c0.16,1.02-0.27,1.41-0.06,2.34c0.04,0.19,0.3,1.25,1.28,1.86
        c1.14,0.72,2.4,0.3,2.59,0.23c0-0.4,0-0.4,0.01-1.19c-0.01,0.79-0.01,0.79-0.01,1.19c0.12,0.05,1.37,0.51,2.33-0.2
        c0.73-0.54,0.85-1.42,0.87-1.58c0.15-1.11-0.55-1.56-0.47-2.72c0.05-0.66,0.33-1.17,0.53-1.48"/>
      <path d="M13.45,10.89c0.2,0.24,0.26,0.48,0.39,0.96c0.05,0.17,0.08,0.33,0,0.39c-0.04,0.03-0.1,0.02-0.17,0.01
        c-0.2-0.02-0.32,0.05-0.48,0.08c-0.08,0.02-0.45,0.11-0.81-0.02c-0.31-0.12-0.48-0.35-0.71-0.68c-0.03-0.05-0.08-0.12-0.1-0.21
        c0,0-0.03-0.15,0.02-0.32c0.1-0.31,0.7-0.84,1.29-0.67C13.15,10.52,13.3,10.7,13.45,10.89z"/>
      <path d="M18.83,10.89c-0.2,0.24-0.26,0.48-0.39,0.96c-0.05,0.17-0.08,0.33,0,0.39c0.04,0.03,0.1,0.02,0.17,0.01
        c0.2-0.02,0.32,0.05,0.48,0.08c0.08,0.02,0.45,0.11,0.81-0.02c0.31-0.12,0.48-0.35,0.71-0.68c0.03-0.05,0.08-0.12,0.1-0.21
        c0,0,0.03-0.15-0.02-0.32c-0.1-0.31-0.7-0.84-1.29-0.67C19.13,10.52,18.98,10.7,18.83,10.89z"/>
      <circle cx="19.44" cy="11.39" r="0.76"/>
      <circle cx="12.84" cy="11.39" r="0.76"/>
    </g>
    <g stroke="#7A5120">
      <path d="M7.14,11.43c-0.72,0.84-1.35,1.75-1.88,2.73c-0.31,0.56-0.59,1.15-0.82,1.75c0.45,0.82,0.82,1.69,1.11,2.58
        c0.3,0.92,0.5,1.86,0.62,2.81c-0.47,0.79-0.74,1.68-0.79,2.6c-0.03,0.55,0.03,1.11,0.17,1.64"/>
      <path d="M25.92,12.07c0.59,0.78,1.07,1.64,1.41,2.56c0.07,0.19,0.13,0.39,0.19,0.58c0.02,0.38,0.02,0.76,0,1.15
        c-0.14,1.51-0.64,2.96-1.46,4.23c0.19,0.6,0.34,1.22,0.43,1.84c0.22,0.92,0.16,1.89-0.18,2.78c-0.06,0.12-0.13,0.24-0.21,0.35"/>
    </g>
    <g stroke="#A06427">
      <path d="M7.48,12.4c-0.39,0.6-0.79,1.22-1.22,1.93C6,14.8,5.74,15.28,5.51,15.74c0.41,0.95,0.77,1.93,1.06,2.92
        c0.27,0.99,0.48,1.99,0.63,3c-0.5,0.49-0.84,1.11-1,1.79c-0.18,0.87-0.04,1.78,0.4,2.56"/>
      <path d="M25.53,13.37c0.25,0.39,0.48,0.8,0.67,1.22c0.12,0.28,0.22,0.56,0.3,0.8c0.04,0.44,0.04,0.89,0,1.33
        c-0.18,1.34-0.72,2.6-1.57,3.66c0.25,0.69,0.43,1.41,0.55,2.13c0.12,0.61,0.12,1.23,0,1.84c-0.11,0.47-0.32,0.92-0.61,1.3"/>
    </g>
  </g>
</svg>
