<svg xmlns="http://www.w3.org/2000/svg" viewBox="0 0 32 32">
  <g fill="none" stroke-linecap="round" stroke-linejoin="round">
    <g stroke="#232626" stroke-width="0.5">
      <path d="M12.1,24.92a6.38,6.38,0,0,1-1.28-2,10.2,10.2,0,0,1-.84-5.5,7.23,7.23,0,0,1-1.12-1.83A7.62,7.62,0,0,1,8.47,11a11.63,11.63,0,0,0,.27,5.25,12.4,12.4,0,0,1,.79,3.07A7.9,7.9,0,0,1,9,22.63a2.83,2.83,0,0,1-1.46,1.73A2.77,2.77,0,0,1,4.73,24a4.41,4.41,0,0,1-.34-1.33,4.71,4.71,0,0,1,.69-2.81A4.46,4.46,0,0,0,5,19,16.48,16.48,0,0,0,3.6,15.68S3.21,14.22,7.5,9.5l1.29-.79A5.57,5.57,0,0,1,9.87,7.05c2-2.13,5.27-1.91,7.07-1.79a7.49,7.49,0,0,1,3.85,1,6.66,6.66,0,0,1,2.27,2.45l1.14.62a9.95,9.95,0,0,1,4.18,5.55A7.72,7.72,0,0,1,28,18a7.52,7.52,0,0,1-.76,1.58,7.21,7.21,0,0,1,.36,1.94,3.51,3.51,0,0,1-.87,3s-3.16.63-4.05-1.65c0,0-.89-4.69.63-7.73,0,0,1-.91.64-4.07a7.76,7.76,0,0,1-2,5.72,14.37,14.37,0,0,1,.26,2.05A8.86,8.86,0,0,1,21.29,24a5.61,5.61,0,0,1-2.36,2.27A6.22,6.22,0,0,1,12.1,24.92Z"/>
      <path d="M17.12,20.77l-2.51-2.05a2.94,2.94,0,0,1,2.3-1.37,2.8,2.8,0,0,1,2.47,1.37Z"/>
      <path d="M12.4,18.2A2.65,2.65,0,0,0,12.26,20a3.3,3.3,0,0,0,3.57,1.87l1.08,0,.21-1.14-.21,1.14a6.22,6.22,0,0,0,.95,0A3.4,3.4,0,0,0,20,21.41a2.56,2.56,0,0,0,.7-2.06"/>
      <path d="M14.81,21.86a5.88,5.88,0,0,1,.76,1.26c.31.73.23,1,.47,1.24.66.72,2.79.58,3.15-.47A2,2,0,0,0,18.43,22"/>
      <circle cx="12.62" cy="11.49" r="0.47"/>
      <circle cx="19.38" cy="11.49" r="0.47"/>
    </g>
    <g stroke="#7A5120" stroke-width="1">
      <path d="M9.26,11a7,7,0,0,0,.43,4.44,6.77,6.77,0,0,0,1.2,1.77,9.59,9.59,0,0,0,.39,4.61,5.7,5.7,0,0,0,1.78,2.83,5.41,5.41,0,0,0,1.49.82"/>
      <path d="M6.79,11.76A12.32,12.32,0,0,0,5.25,14a11.29,11.29,0,0,0-.67,1.44,12.34,12.34,0,0,1,.91,2.12A12.56,12.56,0,0,1,6,19.87,4.72,4.72,0,0,0,5.35,22a4.33,4.33,0,0,0,.14,1.35"/>
      <path d="M26.15,12.5a8.26,8.26,0,0,1,1.16,2.1c.06.16.11.32.16.48a7.43,7.43,0,0,1,0,.94,7.72,7.72,0,0,1-1.2,3.47A9.4,9.4,0,0,1,26.62,21a3.83,3.83,0,0,1-.15,2.28,2.24,2.24,0,0,1-.17.29"/>
    </g>
    <g stroke="#A06427" stroke-width="1">
      <path d="M7.23,12.56c-.32.49-.65,1-1,1.58-.22.39-.43.78-.62,1.16a21,21,0,0,1,.87,2.4A20.84,20.84,0,0,1,7,20.16a3,3,0,0,0-.82,1.47,3,3,0,0,0,.33,2.1"/>
      <path d="M25.74,13.56a7.31,7.31,0,0,1,.55,1c.1.23.18.46.25.66a5.82,5.82,0,0,1,0,1.09,6.05,6.05,0,0,1-1.29,3,9.6,9.6,0,0,1,.45,1.75,3.77,3.77,0,0,1,0,1.51,2.89,2.89,0,0,1-.5,1.07"/>
    </g>
  </g>
</svg>