<svg xmlns="http://www.w3.org/2000/svg" viewBox="0 0 32 32">
  <g fill="none" stroke-linecap="round" stroke-linejoin="round" stroke-width=".9">
    <g stroke="#545288">
      <line x1="19.31" y1="23.54" x2="21.59" y2="22.6"/>
      <line x1="21.59" y1="23.87" x2="19.31" y2="24.81"/>
      <line x1="21.59" y1="25.21" x2="19.31" y2="26.15"/>
      <line x1="19.31" y1="22.27" x2="21.59" y2="21.33"/>
      <line x1="21.59" y1="20.05" x2="19.31" y2="20.99"/>
    </g>
    <g stroke="#7D689E">
      <line x1="13.63" y1="16.96" x2="15.31" y2="16.27"/>
      <line x1="13.05" y1="15.93" x2="15.31" y2="15"/>
      <line x1="15.55" y1="13.72" x2="11.52" y2="15.29"/>
      <line x1="5.49" y1="20.31" x2="7.81" y2="19.36"/>
      <line x1="5.49" y1="19.04" x2="7.81" y2="18.08"/>
      <line x1="5.49" y1="17.76" x2="7.81" y2="16.81"/>
      <line x1="26.05" y1="8.04" x2="26.47" y2="7.86"/>
      <line x1="26.47" y1="9.13" x2="26.1" y2="9.29"/>
      <line x1="19.25" y1="13.38" x2="21.83" y2="12.32"/>
      <line x1="26.47" y1="11.68" x2="26.28" y2="11.75"/>
      <line x1="26.47" y1="10.41" x2="26.22" y2="10.51"/>
      <path d="M22,9.7,5.49,16.49"/>
      <line x1="19.31" y1="14.63" x2="21.83" y2="13.59"/>
      <line x1="21.83" y1="11.04" x2="18.39" y2="12.46"/>
    </g>
    <g stroke="#685E94">
      <line x1="5.49" y1="21.58" x2="7.81" y2="20.63"/>
      <line x1="7.81" y1="21.9" x2="5.57" y2="22.82"/>
      <line x1="7.81" y1="23.17" x2="5.67" y2="24.05"/>
      <line x1="26.47" y1="14.23" x2="26.28" y2="14.31"/>
      <line x1="15.31" y1="18.82" x2="13.07" y2="19.74"/>
      <line x1="26.28" y1="13.03" x2="26.47" y2="12.95"/>
      <line x1="19.33" y1="19.71" x2="21.59" y2="18.78"/>
      <line x1="19.31" y1="18.45" x2="21.59" y2="17.51"/>
      <line x1="13.07" y1="18.46" x2="15.31" y2="17.54"/>
      <line x1="15.31" y1="20.09" x2="13.94" y2="20.66"/>
      <line x1="19.31" y1="17.17" x2="21.59" y2="16.23"/>
      <line x1="19.33" y1="15.89" x2="21.59" y2="14.96"/>
    </g>
    <g stroke="9071A6">
      <path d="M5.49,13.94,22.39,7"/>
      <path d="M5.49,11.4l21-8.63"/>
      <path d="M26.51,4l-21,8.65"/>
      <line x1="26.51" y1="5.3" x2="25.6" y2="5.67"/>
      <line x1="26.51" y1="6.57" x2="25.68" y2="6.91"/>
      <path d="M5.49,15.22,22,8.43"/>
    </g>
    <g stroke="#353535">
      <path d="M26.47,29.23V14.87h-.23V10.62h-.17V8.08h-.39V6.38l-.23-.76H22.64l-.23.76v1.7H22v2.54h-.17v4.25h-.24V29.21"/>
      <line x1="23.55" y1="6.52" x2="23.55" y2="5.62"/>
      <line x1="24.55" y1="6.52" x2="24.55" y2="5.62"/>
      <line x1="23.03" y1="9.96" x2="25.01" y2="9.96"/>
      <line x1="22.98" y1="14.09" x2="25.12" y2="14.09"/>
      <line x1="23.39" y1="7.64" x2="24.71" y2="7.64"/>
      <line x1="16.63" y1="7.1" x2="16.63" y2="12.57"/>
      <line x1="18.03" y1="7.1" x2="18.03" y2="12.57"/>
      <line x1="16.63" y1="11.4" x2="18.03" y2="11.4"/>
      <path d="M15.33,29.21V14l2-2.14,2,2.14V29.23"/>
      <line x1="15.33" y1="13.96" x2="19.33" y2="17.83"/>
      <line x1="15.33" y1="17.97" x2="19.33" y2="21.84"/>
      <line x1="15.33" y1="22.14" x2="19.33" y2="26.01"/>
      <path d="M15.33,26.15l3.19,3.08"/>
      <line x1="19.27" y1="14.11" x2="15.33" y2="17.92"/>
      <line x1="19.27" y1="18.12" x2="15.27" y2="21.99"/>
      <line x1="19.27" y1="22.29" x2="15.33" y2="26.1"/>
      <path d="M19.27,26.3l-3,2.93"/>
      <path d="M7.84,29.19c0-1.55,0-13.32,0-13.59a.45.45,0,0,1,.09-.22.36.36,0,0,1,.22-.09h3.37a.28.28,0,0,1,.28.12.3.3,0,0,1,0,.19V29.21m1.24,0v-13l-1.33-.86M7.84,16h4m1.24.86L11.83,16m-2-.75V29.22m1-13.93V29.22m-2-13.93V29.22"/>
      <path d="M5.5,29.2V24c0.8,0,1.6,0,2.4,0"/>
      <line x1="13.07" y1="20.76" x2="15.33" y2="20.76"/>
      <line x1="13.07" y1="21.76" x2="15.27" y2="21.76"/>
      <line x1="13.07" y1="22.91" x2="15.33" y2="22.91"/>
      <line x1="13.07" y1="26.45" x2="15.33" y2="26.45"/>
      <line x1="19.33" y1="26.01" x2="21.61" y2="26.01"/>
      <line x1="20.47" y1="26.01" x2="20.47" y2="29.22"/>
    </g>
  </g>
</svg>