<svg xmlns="http://www.w3.org/2000/svg" width="32px" height="32px" viewBox="0 0 32 32">
  <g stroke="#232626" stroke-width="0.75" stroke-linecap="round" stroke-linejoin="round" stroke-miterlimit="10">
    <path fill="none" d="M27.45,27.48V10.69c0-3.44-2.42-6.25-5.38-6.25H9.93c-3,0-5.38,2.81-5.38,6.25v16.79"/>
    <rect fill="#FEC20E" x="5.91" y="7.14" width="20.09" height="17.64" rx="3"/>
    <g fill="#A6DAF8">
      <rect x="8.18" y="9.53" width="2.82" height="6.34" rx="1.27"/>
      <rect x="12.87" y="9.53" width="6.34" height="6.34" rx="1.27"/>
      <rect x="21.16" y="9.53" width="2.82" height="6.34" rx="1.27"/>
    </g>
    <g fill="#FFFFFF">
      <circle cx="9.87" cy="21.65" r="1.34"/>
      <circle cx="22.63" cy="21.65" r="1.34"/>
    </g>
    <line x1="10.49" y1="27.56" x2="11.88" y2="24.78"/>
    <line x1="20.2" y1="24.78" x2="21.59" y2="27.56"/>
    <line x1="11" y1="26.54" x2="21.08" y2="26.54"/>
    <rect fill="#232626" x="6.42" y="17.39" width="18.84" height="1.76"/>
  </g>
</svg>
