<svg xmlns="http://www.w3.org/2000/svg" viewBox="0 0 32 32">
  <g fill="none" stroke-linecap="round" stroke-linejoin="round" stroke-width="1.2">
    <g stroke="#353535">
      <path d="M27.45,27.48V10.69c0-3.44-2.42-6.25-5.38-6.25H9.93c-3,0-5.38,2.81-5.38,6.25V27.48"/>
      <rect x="8.18" y="9.53" width="2.82" height="6.34" rx="1.27"/>
      <rect x="12.87" y="9.53" width="6.34" height="6.34" rx="1.27"/>
      <rect x="21.16" y="9.53" width="2.82" height="6.34" rx="1.27"/>
      <circle cx="9.87" cy="21.65" r="1.34"/>
      <circle cx="22.63" cy="21.65" r="1.34"/>
      <path d="M22.88,24.78H9.07a3.17,3.17,0,0,1-3.16-3.16V10.3a3.24,3.24,0,0,1,.93-2.23,3.2,3.2,0,0,1,2.23-.93H22.88A3.18,3.18,0,0,1,26,10.3V21.62A3.17,3.17,0,0,1,22.88,24.78Z"/>
      <line x1="10.49" y1="27.56" x2="11.88" y2="24.78"/>
      <line x1="20.2" y1="24.78" x2="21.59" y2="27.56"/>
      <line x1="11" y1="26.54" x2="21.08" y2="26.54"/>
    </g>
    <path d="M24.29,17.59H7.65c-.27,0-.49.08-.49.18v.93c0,.1.22.18.49.18H24.29c.27,0,.49-.08.49-.18v-.93C24.78,17.67,24.56,17.59,24.29,17.59Z" stroke="#FEC20E"/>
  </g>
</svg>