<svg xmlns="http://www.w3.org/2000/svg" viewBox="0 0 32 32">
  <g fill="none" stroke-linecap="round" stroke-linejoin="round">
    <rect fill="#FFFFFF" stroke="#232626" stroke-width="0.75" x="4.51" y="4.51" width="22.97" height="22.97"/>
    <rect x="5.43" y="5.43" width="21.14" height="17.15" fill="#E69B25" stroke="#E69B25" stroke-width="1"/>
    <g stroke="#232626" stroke-width="0.75">
      <path d="M16.31,15.36l.06,2.72-1.18.75-.11-2.35"/>
      <path d="M19,19l-.07,1.18-1.12-.06.08-1.43"/>
      <path d="M13.33,19.4l.12,1.54,1.05-.06-.07-1.44"/>
      <path d="M13.38,13.38l0,2-1.34-.69L12,11.3"/>
      <line x1="9.16" y1="12.52" x2="8.89" y2="25.88"/>
      <line x1="12.86" y1="15.07" x2="12.73" y2="24.39"/>
      <path d="M9.9,7.46l.48,5.87-3-2,.16-6.84"/>
      <path d="M22.35,4.63l-.07,1.28-2.21-1.4"/>
      <path d="M25.61,11.68,26,14.61l-1.66.11L24,12.05"/>
      <line x1="12.73" y1="24.39" x2="4.51" y2="25.35"/>
      <line x1="8.89" y1="25.88" x2="4.51" y2="26.36"/>
      <path d="M25.34,24.77c.06-1.91.05-3.94-.05-6.1-.07-1.37-.17-2.69-.3-4"/>
      <path d="M22,27.22q-.43-11-.89-22.07"/>
      <line x1="15.81" y1="18.44" x2="16" y2="23.91"/>
      <line x1="18.35" y1="20.24" x2="18.35" y2="23.8"/>
      <line x1="25.34" y1="24.77" x2="4.51" y2="26.69"/>
      <line x1="16" y1="23.91" x2="11.83" y2="24.33"/>
      <line x1="18.35" y1="23.8" x2="15.08" y2="24.12"/>
      <line x1="23.67" y1="23.36" x2="23.67" y2="21.2"/>
      <line x1="23.67" y1="23.36" x2="18.35" y2="23.8"/>
      <line x1="13.99" y1="20.9" x2="13.91" y2="23.96"/>
      <path d="M6.7,19.81,6.64,21l-1.06-.06.07-1.43"/>
      <path d="M6.14,21,6,23.48l-1.49.25"/>
      <path d="M24.19,20.47l-.06,1.18-1.06-.06.07-1.43"/>
    </g>
  </g>
</svg>