<svg xmlns="http://www.w3.org/2000/svg" viewBox="0 0 32 32">
  <g fill="none" stroke-linecap="round" stroke-linejoin="round">
    <g stroke="#232626" stroke-width="0.5">
      <path d="M17.42,6.14H14.21a.53.53,0,0,1-.53-.53V4.26a.53.53,0,0,1,.53-.54h3.21a.53.53,0,0,1,.37.16.58.58,0,0,1,.16.38V5.61A.53.53,0,0,1,17.42,6.14Z"/>
      <path d="M17.71,6.74l-3.85.08a1.56,1.56,0,0,0-.95.3,1.51,1.51,0,0,0-.51.78C11.81,12.36,11.32,17,11,21.84c-.13,1.81-.24,3.6-.33,5.36a.86.86,0,0,0,.12.45,1,1,0,0,0,.74.41c1.43.13,3,.22,4.66.22s3-.07,4.32-.18a.83.83,0,0,0,.9-.64c-.06-.7-.43-4.82-.49-5.51L19.6,8A2.19,2.19,0,0,0,18.76,7,1.9,1.9,0,0,0,17.71,6.74Z"/>
    </g>
    <g stroke="#E94E81" stroke-width="1">
      <path d="M16.69,9.56c-.22.19-.21.52-.3.52s-.07-.25-.26-.41a.77.77,0,0,0-.44-.12,2,2,0,0,0-.58.07,1.79,1.79,0,0,1-.73,0c-.36-.1-.4-.31-.79-.41a1.51,1.51,0,0,0-.44,0V8.24a.58.58,0,0,1,.2-.4.65.65,0,0,1,.5-.13l4-.12a.93.93,0,0,1,.55.2,1,1,0,0,1,.34.5l0,.74a1.29,1.29,0,0,0-.51,0c-.38.09-.41.27-.77.38S16.92,9.38,16.69,9.56Z"/>
      <path d="M16.55,24.53a13.16,13.16,0,0,0,3.75.3l.21,2.42a39.37,39.37,0,0,1-4.55.23,37.72,37.72,0,0,1-4.48-.27l.21-3.52a19.64,19.64,0,0,1,2.15.22C15.07,24.11,15.71,24.35,16.55,24.53Z"/>
    </g>
    <path d="M14.87,15.66l-2.62.62,0-.73.56-.13c.71-.15,1.41-.28,2.09-.39Z" stroke="#E01D43" stroke-width="1"/>
    <g stroke="#2D3485" stroke-width="1">
      <line x1="17.92" y1="11.5" x2="17.92" y2="11.5"/>
      <path d="M12.65,14.07l0-1.18.69-.26,0,.81,5.44-1.25v0l.26-.28-.22.56.33.2-2.88.62,0,.78,0-.78Z"/>
    </g>
  </g>
</svg>