<svg xmlns="http://www.w3.org/2000/svg" viewBox="0 0 32 32">
  <g fill="none" stroke-linecap="round" stroke-linejoin="round">
    <path d="M28.74,11.25c0,2.12-5.7,3.84-12.73,3.84S3.29,13.37,3.29,11.25,9,7.41,16,7.41,28.74,9.13,28.74,11.25ZM3.29,11.09a10.87,10.87,0,0,0,.07,2.21c.9,6.89,7.9,11.2,10.42,11.26l2.23,0h2.12c2.52,0,9.24-4.29,10.42-11.22a12.6,12.6,0,0,0,.19-2.28" stroke="#232626" stroke-width="0.25"/>
    <g stroke="#F58B8B" stroke-width="0.5">
      <line x1="8.66" y1="11.31" x2="9.17" y2="11.06"/>
      <line x1="24" y1="10.1" x2="24.4" y2="10.44"/>
      <line x1="15.13" y1="9.12" x2="15.37" y2="8.7"/>
      <line x1="12.21" y1="8.77" x2="11.95" y2="8.36"/>
      <line x1="18.84" y1="9.11" x2="19.26" y2="9.45"/>
      <line x1="20.36" y1="11.59" x2="19.98" y2="11.95"/>
      <line x1="10.43" y1="10.46" x2="10.07" y2="10.09"/>
      <line x1="8.71" y1="9.41" x2="9.15" y2="9.08"/>
      <line x1="14.34" y1="10.22" x2="14.04" y2="10.62"/>
      <line x1="16.14" y1="11.81" x2="15.61" y2="12.03"/>
      <line x1="20.92" y1="10.03" x2="21.35" y2="9.7"/>
      <line x1="19.16" y1="8.22" x2="19.65" y2="8.5"/>
      <line x1="16.52" y1="9.94" x2="16.77" y2="10.36"/>
      <line x1="13.04" y1="10.01" x2="13.3" y2="9.6"/>
      <line x1="15.47" y1="7.99" x2="16.06" y2="8.13"/>
      <line x1="20.82" y1="12.3" x2="20.57" y2="11.88"/>
      <line x1="22.94" y1="9.55" x2="23.46" y2="9.3"/>
      <line x1="15.91" y1="10.79" x2="15.51" y2="11.14"/>
      <line x1="12.83" y1="12.21" x2="12.32" y2="11.97"/>
    </g>
    <g stroke="#0D97B7">
      <line x1="25.49" y1="9.87" x2="24.98" y2="10.13"/>
      <line x1="10.16" y1="11.08" x2="9.75" y2="10.74"/>
      <line x1="16.1" y1="8.94" x2="16.62" y2="9.18"/>
      <line x1="17.95" y1="11.97" x2="17.71" y2="12.39"/>
      <line x1="6.77" y1="10.33" x2="7.35" y2="10.19"/>
      <line x1="21.94" y1="12.41" x2="22.21" y2="12.83"/>
      <line x1="15.31" y1="12.08" x2="14.9" y2="11.74"/>
      <line x1="11.99" y1="10.08" x2="12.38" y2="9.73"/>
      <line x1="23.72" y1="10.72" x2="24.08" y2="11.1"/>
      <line x1="25.44" y1="11.78" x2="25.01" y2="12.1"/>
      <line x1="19.82" y1="10.97" x2="20.11" y2="10.56"/>
      <line x1="15.36" y1="10.18" x2="15.93" y2="10.34"/>
      <line x1="22.7" y1="9.75" x2="22.49" y2="9.32"/>
      <line x1="18.01" y1="8.47" x2="18.55" y2="8.25"/>
      <line x1="13.23" y1="11.15" x2="12.8" y2="11.48"/>
      <line x1="14.43" y1="13.73" x2="13.94" y2="13.45"/>
      <line x1="12.38" y1="12.58" x2="11.99" y2="12.23"/>
      <line x1="17.64" y1="11.24" x2="17.39" y2="10.82"/>
      <line x1="21.11" y1="11.17" x2="20.86" y2="11.59"/>
      <line x1="17.14" y1="12.98" x2="16.56" y2="12.85"/>
      <line x1="8.42" y1="8.74" x2="8.67" y2="9.16"/>
      <line x1="11.21" y1="11.63" x2="10.7" y2="11.88"/>
      <line x1="18.24" y1="10.39" x2="18.64" y2="10.04"/>
      <line x1="21.32" y1="8.97" x2="21.83" y2="9.22"/>
    </g>
    <g stroke="#F89521">
      <line x1="23.9" y1="9.45" x2="23.4" y2="9.71"/>
      <line x1="8.57" y1="11.01" x2="8.16" y2="10.67"/>
      <line x1="15.06" y1="9.65" x2="15.58" y2="9.89"/>
      <line x1="17.43" y1="13.02" x2="17.19" y2="13.45"/>
      <line x1="5.18" y1="9.98" x2="5.76" y2="9.84"/>
      <line x1="13.72" y1="12.81" x2="13.31" y2="12.47"/>
      <line x1="12.2" y1="9.13" x2="12.59" y2="8.77"/>
      <line x1="22.13" y1="10.96" x2="22.49" y2="11.33"/>
      <line x1="23.85" y1="12.75" x2="23.42" y2="13.08"/>
      <line x1="18.23" y1="10.73" x2="18.52" y2="10.32"/>
      <line x1="13.77" y1="9.92" x2="14.34" y2="10.08"/>
      <line x1="21.11" y1="9.51" x2="20.9" y2="9.08"/>
      <line x1="14.52" y1="8.27" x2="15.05" y2="8.05"/>
      <line x1="11.64" y1="11.64" x2="11.21" y2="11.97"/>
      <line x1="10.79" y1="13.74" x2="10.4" y2="13.39"/>
      <line x1="16.05" y1="11.7" x2="15.8" y2="11.28"/>
      <line x1="19.52" y1="11.91" x2="19.27" y2="12.33"/>
      <line x1="10.17" y1="8.21" x2="10.42" y2="8.63"/>
      <line x1="9.62" y1="12.28" x2="9.11" y2="12.52"/>
      <line x1="16.65" y1="10.38" x2="17.05" y2="10.03"/>
      <line x1="19.73" y1="8.58" x2="20.24" y2="8.83"/>
    </g>
    <g stroke="#DA2827">
      <line x1="8.06" y1="11.79" x2="8.57" y2="11.53"/>
      <line x1="23.39" y1="10.58" x2="23.8" y2="10.92"/>
      <line x1="16.9" y1="11.66" x2="16.38" y2="11.42"/>
      <line x1="14.53" y1="9.6" x2="14.77" y2="9.18"/>
      <line x1="26.78" y1="11.33" x2="26.2" y2="11.47"/>
      <line x1="11.61" y1="9.25" x2="11.34" y2="8.83"/>
      <line x1="18.24" y1="9.58" x2="18.65" y2="9.92"/>
      <line x1="19.76" y1="12.07" x2="19.38" y2="12.42"/>
      <line x1="9.83" y1="10.94" x2="9.47" y2="10.56"/>
      <line x1="8.11" y1="9.88" x2="8.54" y2="9.56"/>
      <line x1="13.73" y1="10.69" x2="13.44" y2="11.1"/>
      <line x1="18.19" y1="11.48" x2="17.62" y2="11.32"/>
      <line x1="10.85" y1="11.91" x2="11.06" y2="12.34"/>
      <line x1="15.54" y1="12.29" x2="15" y2="12.51"/>
      <line x1="20.32" y1="10.51" x2="20.75" y2="10.18"/>
      <line x1="18.55" y1="8.7" x2="19.04" y2="8.98"/>
      <line x1="21.17" y1="9.08" x2="21.56" y2="9.43"/>
      <line x1="15.91" y1="10.42" x2="16.16" y2="10.84"/>
      <line x1="12.44" y1="10.49" x2="12.69" y2="10.07"/>
      <line x1="14.87" y1="8.47" x2="15.45" y2="8.6"/>
      <line x1="20.21" y1="12.78" x2="19.97" y2="12.36"/>
      <line x1="22.34" y1="10.03" x2="22.85" y2="9.78"/>
      <line x1="15.31" y1="11.27" x2="14.91" y2="11.62"/>
      <line x1="12.23" y1="12.69" x2="11.72" y2="12.44"/>
    </g>
    <g stroke="#5FBB47">
      <line x1="25.13" y1="11.1" x2="24.62" y2="11.36"/>
      <line x1="9.8" y1="12.31" x2="9.39" y2="11.97"/>
      <line x1="16.28" y1="11.23" x2="16.81" y2="11.47"/>
      <line x1="18.66" y1="13.29" x2="18.42" y2="13.72"/>
      <line x1="6.41" y1="11.56" x2="6.99" y2="11.42"/>
      <line x1="14.95" y1="13.31" x2="14.54" y2="12.97"/>
      <line x1="13.43" y1="10.83" x2="13.81" y2="10.47"/>
      <line x1="23.36" y1="11.96" x2="23.72" y2="12.33"/>
      <line x1="25.08" y1="13.01" x2="24.65" y2="13.33"/>
      <line x1="19.46" y1="12.2" x2="19.75" y2="11.79"/>
      <line x1="15" y1="11.41" x2="15.57" y2="11.57"/>
      <line x1="22.34" y1="10.98" x2="22.13" y2="10.55"/>
      <line x1="17.65" y1="10.6" x2="18.19" y2="10.38"/>
      <line x1="12.87" y1="12.38" x2="12.44" y2="12.71"/>
      <line x1="12.02" y1="13.81" x2="11.63" y2="13.46"/>
      <line x1="17.27" y1="12.47" x2="17.03" y2="12.05"/>
      <line x1="20.75" y1="12.4" x2="20.5" y2="12.82"/>
      <line x1="12.97" y1="10.11" x2="13.22" y2="10.54"/>
      <line x1="10.85" y1="12.87" x2="10.33" y2="13.11"/>
      <line x1="17.88" y1="11.62" x2="18.28" y2="11.28"/>
      <line x1="20.96" y1="10.2" x2="21.47" y2="10.45"/>
    </g>
    <g stroke="#EBDB1D">
      <line x1="24.94" y1="9.24" x2="24.44" y2="9.5"/>
      <line x1="8.25" y1="10.2" x2="7.84" y2="9.86"/>
      <line x1="14.74" y1="9.11" x2="15.26" y2="9.35"/>
      <line x1="17.11" y1="11.18" x2="16.87" y2="11.6"/>
      <line x1="9.99" y1="8.81" x2="10.57" y2="8.67"/>
      <line x1="19.52" y1="13.02" x2="19.78" y2="13.44"/>
      <line x1="12.24" y1="13.22" x2="11.82" y2="12.88"/>
      <line x1="11.88" y1="8.71" x2="12.27" y2="8.35"/>
      <line x1="21.4" y1="11.48" x2="21.76" y2="11.85"/>
      <line x1="22.68" y1="11.93" x2="22.24" y2="12.25"/>
      <line x1="17.44" y1="10.14" x2="17.73" y2="9.73"/>
      <line x1="13.46" y1="9.3" x2="14.03" y2="9.46"/>
      <line x1="22.52" y1="8.7" x2="22.31" y2="8.26"/>
      <line x1="16.1" y1="8.49" x2="16.64" y2="8.27"/>
      <line x1="11.33" y1="10.27" x2="10.9" y2="10.6"/>
      <line x1="13.09" y1="12.08" x2="12.6" y2="11.8"/>
      <line x1="10.47" y1="11.7" x2="10.08" y2="11.34"/>
      <line x1="15.73" y1="10.36" x2="15.48" y2="9.94"/>
      <line x1="19.21" y1="10.28" x2="18.95" y2="10.7"/>
      <line x1="16.26" y1="13.28" x2="15.67" y2="13.15"/>
      <line x1="11.43" y1="8" x2="11.68" y2="8.42"/>
      <line x1="9.3" y1="10.75" x2="8.79" y2="11"/>
      <line x1="16.33" y1="9.51" x2="16.73" y2="9.16"/>
      <line x1="19.41" y1="8.08" x2="19.92" y2="8.33"/>
    </g>
    <g stroke="#A65C8F">
      <line x1="6.8" y1="12.34" x2="7.3" y2="12.08"/>
      <line x1="22.13" y1="11.12" x2="22.54" y2="11.47"/>
      <line x1="15.64" y1="12.21" x2="15.12" y2="11.97"/>
      <line x1="13.27" y1="10.15" x2="13.51" y2="9.72"/>
      <line x1="25.52" y1="11.88" x2="24.94" y2="12.02"/>
      <line x1="10.35" y1="9.8" x2="10.08" y2="9.38"/>
      <line x1="16.98" y1="10.13" x2="17.39" y2="10.47"/>
      <line x1="18.5" y1="12.61" x2="18.11" y2="12.97"/>
      <line x1="8.57" y1="11.48" x2="8.21" y2="11.11"/>
      <line x1="6.84" y1="10.43" x2="7.28" y2="10.11"/>
      <line x1="12.47" y1="11.24" x2="12.18" y2="11.64"/>
      <line x1="16.92" y1="12.03" x2="16.35" y2="11.86"/>
      <line x1="9.59" y1="12.45" x2="9.8" y2="12.89"/>
      <line x1="14.28" y1="12.84" x2="13.74" y2="13.05"/>
      <line x1="19.05" y1="11.05" x2="19.48" y2="10.73"/>
      <line x1="17.29" y1="9.25" x2="17.78" y2="9.52"/>
      <line x1="19.91" y1="9.62" x2="20.3" y2="9.98"/>
      <line x1="14.65" y1="10.96" x2="14.9" y2="11.39"/>
      <line x1="11.17" y1="11.04" x2="11.43" y2="10.62"/>
      <line x1="13.61" y1="9.02" x2="14.19" y2="9.15"/>
      <line x1="18.95" y1="13.32" x2="18.7" y2="12.9"/>
      <line x1="21.08" y1="10.57" x2="21.59" y2="10.33"/>
      <line x1="14.05" y1="11.81" x2="13.65" y2="12.16"/>
      <line x1="10.97" y1="13.24" x2="10.46" y2="12.99"/>
    </g>
  </g>
</svg>