<svg xmlns="http://www.w3.org/2000/svg" width="32px" height="32px" viewBox="0 0 32 32">
  <g stroke-linecap="round" stroke-linejoin="round">
    <path fill="#FFFFFF" stroke="#232626" stroke-width="0.75" d="M28.72,11.26
      c0,2.12-5.7,3.84-12.73,3.84S3.27,13.38,3.27,11.26s5.71-3.84,12.71-3.84S28.72,9.14,28.72,11.26z"/>
    <g fill="none">
      <g stroke="#F58B8B">
        <line x1="8.64" y1="12.32" x2="9.15" y2="12.07"/>
        <line x1="23.98" y1="11.11" x2="24.38" y2="11.45"/>
        <line x1="15.11" y1="10.13" x2="15.35" y2="9.71"/>
        <line x1="12.19" y1="9.78" x2="11.93" y2="9.37"/>
        <line x1="18.82" y1="10.12" x2="19.24" y2="10.46"/>
        <line x1="20.34" y1="12.6" x2="19.96" y2="12.96"/>
        <line x1="10.41" y1="11.47" x2="10.05" y2="11.1"/>
        <line x1="8.69" y1="10.42" x2="9.13" y2="10.09"/>
        <line x1="14.32" y1="11.23" x2="14.02" y2="11.63"/>
        <line x1="16.12" y1="12.82" x2="15.59" y2="13.04"/>
        <line x1="20.9" y1="11.04" x2="21.33" y2="10.71"/>
        <line x1="19.14" y1="9.23" x2="19.63" y2="9.51"/>
        <line x1="16.5" y1="10.95" x2="16.75" y2="11.37"/>
        <line x1="13.02" y1="11.02" x2="13.28" y2="10.61"/>
        <line x1="15.45" y1="9" x2="16.04" y2="9.14"/>
        <line x1="20.8" y1="13.31" x2="20.55" y2="12.89"/>
        <line x1="22.92" y1="10.56" x2="23.44" y2="10.31"/>
        <line x1="15.89" y1="11.8" x2="15.49" y2="12.15"/>
        <line x1="12.81" y1="13.22" x2="12.3" y2="12.98"/>
      </g>
      <g stroke="#0D97B7">
        <line x1="25.47" y1="10.88" x2="24.96" y2="11.14"/>
        <line x1="10.14" y1="12.09" x2="9.73" y2="11.75"/>
        <line x1="16.08" y1="9.95" x2="16.6" y2="10.19"/>
        <line x1="17.93" y1="12.98" x2="17.69" y2="13.4"/>
        <line x1="6.75" y1="11.34" x2="7.33" y2="11.2"/>
        <line x1="21.92" y1="13.42" x2="22.19" y2="13.84"/>
        <line x1="15.29" y1="13.09" x2="14.88" y2="12.75"/>
        <line x1="11.97" y1="11.09" x2="12.36" y2="10.74"/>
        <line x1="23.7" y1="11.73" x2="24.06" y2="12.11"/>
        <line x1="25.42" y1="12.79" x2="24.99" y2="13.11"/>
        <line x1="19.8" y1="11.98" x2="20.09" y2="11.57"/>
        <line x1="15.34" y1="11.19" x2="15.91" y2="11.35"/>
        <line x1="22.68" y1="10.76" x2="22.47" y2="10.33"/>
        <line x1="17.99" y1="9.48" x2="18.53" y2="9.26"/>
        <line x1="13.21" y1="12.16" x2="12.78" y2="12.49"/>
        <line x1="14.41" y1="14.74" x2="13.92" y2="14.46"/>
        <line x1="12.36" y1="13.59" x2="11.97" y2="13.24"/>
        <line x1="17.62" y1="12.25" x2="17.37" y2="11.83"/>
        <line x1="21.09" y1="12.18" x2="20.84" y2="12.6"/>
        <line x1="17.12" y1="13.99" x2="16.54" y2="13.86"/>
        <line x1="8.4" y1="9.75" x2="8.65" y2="10.17"/>
        <line x1="11.19" y1="12.64" x2="10.68" y2="12.89"/>
        <line x1="18.22" y1="11.4" x2="18.62" y2="11.05"/>
        <line x1="21.3" y1="9.98" x2="21.81" y2="10.23"/>
      </g>
      <g stroke="#F89521">
        <line x1="23.88" y1="10.46" x2="23.38" y2="10.72"/>
        <line x1="8.55" y1="12.02" x2="8.14" y2="11.68"/>
        <line x1="15.04" y1="10.66" x2="15.56" y2="10.9"/>
        <line x1="17.41" y1="14.03" x2="17.17" y2="14.46"/>
        <line x1="5.16" y1="10.99" x2="5.74" y2="10.85"/>
        <line x1="13.7" y1="13.82" x2="13.29" y2="13.48"/>
        <line x1="12.18" y1="10.14" x2="12.57" y2="9.78"/>
        <line x1="22.11" y1="11.97" x2="22.47" y2="12.34"/>
        <line x1="23.83" y1="13.76" x2="23.4" y2="14.09"/>
        <line x1="18.21" y1="11.74" x2="18.5" y2="11.33"/>
        <line x1="13.75" y1="10.93" x2="14.32" y2="11.09"/>
        <line x1="21.09" y1="10.52" x2="20.88" y2="10.09"/>
        <line x1="14.5" y1="9.28" x2="15.03" y2="9.06"/>
        <line x1="11.62" y1="12.65" x2="11.19" y2="12.98"/>
        <line x1="10.77" y1="14.75" x2="10.38" y2="14.4"/>
        <line x1="16.03" y1="12.71" x2="15.78" y2="12.29"/>
        <line x1="19.5" y1="12.92" x2="19.25" y2="13.34"/>
        <line x1="10.15" y1="9.22" x2="10.4" y2="9.64"/>
        <line x1="9.6" y1="13.29" x2="9.09" y2="13.53"/>
        <line x1="16.63" y1="11.39" x2="17.03" y2="11.04"/>
        <line x1="19.71" y1="9.59" x2="20.22" y2="9.84"/>
      </g>
      <g stroke="#DA2827">
        <line x1="8.04" y1="12.8" x2="8.55" y2="12.54"/>
        <line x1="23.37" y1="11.59" x2="23.78" y2="11.93"/>
        <line x1="16.88" y1="12.67" x2="16.36" y2="12.43"/>
        <line x1="14.51" y1="10.61" x2="14.75" y2="10.19"/>
        <line x1="26.76" y1="12.34" x2="26.18" y2="12.48"/>
        <line x1="11.59" y1="10.26" x2="11.32" y2="9.84"/>
        <line x1="18.22" y1="10.59" x2="18.63" y2="10.93"/>
        <line x1="19.74" y1="13.08" x2="19.36" y2="13.43"/>
        <line x1="9.81" y1="11.95" x2="9.45" y2="11.57"/>
        <line x1="8.09" y1="10.89" x2="8.52" y2="10.57"/>
        <line x1="13.71" y1="11.7" x2="13.42" y2="12.11"/>
        <line x1="18.17" y1="12.49" x2="17.6" y2="12.33"/>
        <line x1="10.83" y1="12.92" x2="11.04" y2="13.35"/>
        <line x1="15.52" y1="13.3" x2="14.98" y2="13.52"/>
        <line x1="20.3" y1="11.52" x2="20.73" y2="11.19"/>
        <line x1="18.53" y1="9.71" x2="19.02" y2="9.99"/>
        <line x1="21.15" y1="10.09" x2="21.54" y2="10.44"/>
        <line x1="15.89" y1="11.43" x2="16.14" y2="11.85"/>
        <line x1="12.42" y1="11.5" x2="12.67" y2="11.08"/>
        <line x1="14.85" y1="9.48" x2="15.43" y2="9.61"/>
        <line x1="20.19" y1="13.79" x2="19.95" y2="13.37"/>
        <line x1="22.32" y1="11.04" x2="22.83" y2="10.79"/>
        <line x1="15.29" y1="12.28" x2="14.89" y2="12.63"/>
        <line x1="12.21" y1="13.7" x2="11.7" y2="13.45"/>
      </g>
      <g stroke="#5FBB47">
        <line x1="25.11" y1="12.11" x2="24.6" y2="12.37"/>
        <line x1="9.78" y1="13.32" x2="9.37" y2="12.98"/>
        <line x1="16.26" y1="12.24" x2="16.79" y2="12.48"/>
        <line x1="18.64" y1="14.3" x2="18.4" y2="14.73"/>
        <line x1="6.39" y1="12.57" x2="6.97" y2="12.43"/>
        <line x1="14.93" y1="14.32" x2="14.52" y2="13.98"/>
        <line x1="13.41" y1="11.84" x2="13.79" y2="11.48"/>
        <line x1="23.34" y1="12.97" x2="23.7" y2="13.34"/>
        <line x1="25.06" y1="14.02" x2="24.63" y2="14.34"/>
        <line x1="19.44" y1="13.21" x2="19.73" y2="12.8"/>
        <line x1="14.98" y1="12.42" x2="15.55" y2="12.58"/>
        <line x1="22.32" y1="11.99" x2="22.11" y2="11.56"/>
        <line x1="17.63" y1="11.61" x2="18.17" y2="11.39"/>
        <line x1="12.85" y1="13.39" x2="12.42" y2="13.72"/>
        <line x1="12" y1="14.82" x2="11.61" y2="14.47"/>
        <line x1="17.25" y1="13.48" x2="17.01" y2="13.06"/>
        <line x1="20.73" y1="13.41" x2="20.48" y2="13.83"/>
        <line x1="12.95" y1="11.12" x2="13.2" y2="11.55"/>
        <line x1="10.83" y1="13.88" x2="10.31" y2="14.12"/>
        <line x1="17.86" y1="12.63" x2="18.26" y2="12.29"/>
        <line x1="20.94" y1="11.21" x2="21.45" y2="11.46"/>
      </g>
      <g stroke="#EBDB1D">
        <line x1="24.92" y1="10.25" x2="24.42" y2="10.51"/>
        <line x1="8.23" y1="11.21" x2="7.82" y2="10.87"/>
        <line x1="14.72" y1="10.12" x2="15.24" y2="10.36"/>
        <line x1="17.09" y1="12.19" x2="16.85" y2="12.61"/>
        <line x1="9.97" y1="9.82" x2="10.55" y2="9.68"/>
        <line x1="19.5" y1="14.03" x2="19.76" y2="14.45"/>
        <line x1="12.22" y1="14.23" x2="11.8" y2="13.89"/>
        <line x1="11.86" y1="9.72" x2="12.25" y2="9.36"/>
        <line x1="21.38" y1="12.49" x2="21.74" y2="12.86"/>
        <line x1="22.66" y1="12.94" x2="22.22" y2="13.26"/>
        <line x1="17.42" y1="11.15" x2="17.71" y2="10.74"/>
        <line x1="13.44" y1="10.31" x2="14.01" y2="10.47"/>
        <line x1="22.5" y1="9.71" x2="22.29" y2="9.27"/>
        <line x1="16.08" y1="9.5" x2="16.62" y2="9.28"/>
        <line x1="11.31" y1="11.28" x2="10.88" y2="11.61"/>
        <line x1="13.07" y1="13.09" x2="12.58" y2="12.81"/>
        <line x1="10.45" y1="12.71" x2="10.06" y2="12.35"/>
        <line x1="15.71" y1="11.37" x2="15.46" y2="10.95"/>
        <line x1="19.19" y1="11.29" x2="18.93" y2="11.71"/>
        <line x1="16.24" y1="14.29" x2="15.65" y2="14.16"/>
        <line x1="11.41" y1="9.01" x2="11.66" y2="9.43"/>
        <line x1="9.28" y1="11.76" x2="8.77" y2="12.01"/>
        <line x1="16.31" y1="10.52" x2="16.71" y2="10.17"/>
        <line x1="19.39" y1="9.09" x2="19.9" y2="9.34"/>
      </g>
      <g stroke="#A65C8F">
        <line x1="6.78" y1="13.35" x2="7.28" y2="13.09"/>
        <line x1="22.11" y1="12.13" x2="22.52" y2="12.48"/>
        <line x1="15.62" y1="13.22" x2="15.1" y2="12.98"/>
        <line x1="13.25" y1="11.16" x2="13.49" y2="10.73"/>
        <line x1="25.5" y1="12.89" x2="24.92" y2="13.03"/>
        <line x1="10.33" y1="10.81" x2="10.06" y2="10.39"/>
        <line x1="16.96" y1="11.14" x2="17.37" y2="11.48"/>
        <line x1="18.48" y1="13.62" x2="18.09" y2="13.98"/>
        <line x1="8.55" y1="12.49" x2="8.19" y2="12.12"/>
        <line x1="6.82" y1="11.44" x2="7.26" y2="11.12"/>
        <line x1="12.45" y1="12.25" x2="12.16" y2="12.65"/>
        <line x1="16.9" y1="13.04" x2="16.33" y2="12.87"/>
        <line x1="9.57" y1="13.46" x2="9.78" y2="13.9"/>
        <line x1="14.26" y1="13.85" x2="13.72" y2="14.06"/>
        <line x1="19.03" y1="12.06" x2="19.46" y2="11.74"/>
        <line x1="17.27" y1="10.26" x2="17.76" y2="10.53"/>
        <line x1="19.89" y1="10.63" x2="20.28" y2="10.99"/>
        <line x1="14.63" y1="11.97" x2="14.88" y2="12.4"/>
        <line x1="11.15" y1="12.05" x2="11.41" y2="11.63"/>
        <line x1="13.59" y1="10.03" x2="14.17" y2="10.16"/>
        <line x1="18.93" y1="14.33" x2="18.68" y2="13.91"/>
        <line x1="21.06" y1="11.58" x2="21.57" y2="11.34"/>
        <line x1="14.03" y1="12.82" x2="13.63" y2="13.17"/>
        <line x1="10.95" y1="14.25" x2="10.44" y2="14"/>
      </g>
    </g>
    <g fill="#FFFFFF" stroke="#232626" stroke-width="0.75">
      <path d="M3.3,11.12c-0.01-0.01-0.02-0.01-0.02-0.02c0,0.04,0,0.1,0,0.16C3.28,11.21,3.29,11.17,3.3,11.12z"/>
      <path d="M28.72,11.08c-0.01,0.01-0.02,0.01-0.03,0.02c0.01,0.06,0.03,0.11,0.03,0.17c0,2.12-5.7,3.84-12.73,3.84
        c-7.02,0-12.71-1.72-12.72-3.84c0.01,1.31,0.24,5.25,3.22,8.8c2.71,3.22,6.08,4.22,7.27,4.51c0.74,0,1.49,0,2.23,0h2.12
        c1.16-0.27,4.63-1.22,7.39-4.48C28.66,16.37,28.74,12.17,28.72,11.08z"/>
    </g>
  </g>
</svg>
