<svg xmlns="http://www.w3.org/2000/svg" width="32px" height="32px" viewBox="0 0 32 32">
  <g stroke="#232626" stroke-width="0.75" stroke-miterlimit="10">
    <path fill="#015CBB" d="M23.23,7c-0.1-0.17-0.66-1.12-1.43-2.42h-0.01c-0.52,0.75-2.86,1.31-5.67,1.31c-2.83,0-5.17-0.57-5.68-1.32l0,0
      C9.83,5.26,9.27,6.07,8.82,7l-0.1,0.21c-0.1,0.08-0.05,0.26-0.05,0.27s0,7.69,0,18.78l0.05,0.17l0.15,0.15c1.31,0.66,2.7,1.14,4.14,1.42
      c3.45,0.59,7.01,0.07,10.14-1.5l0.14-0.11l0.05-0.19c0-10.75,0-18.45,0-18.65V7.29C23.32,7.15,23.24,7.02,23.23,7z"/>
    <circle fill="#FDFEFF" cx="14.67" cy="14.74" r="4.33"/>
    <path fill="#E02235" d="M14.67,10.41c1.54-0.03,2.65,0.9,3,1.21c-0.14,0.74-0.47,1.91-1.32,3.08c-1.65,2.27-4.06,2.9-4.77,3.06
      c-0.31-0.34-1.27-1.46-1.23-3.03C10.38,12.49,12.43,10.46,14.67,10.41z"/>
    <path fill="none" d="M8.72,7.21c1.37,0.65,3.97,1.65,7.38,1.66c3.32,0,5.87-0.95,7.24-1.58"/>
    <g>
      <ellipse fill="#C1C1C1" cx="16.12" cy="4.27" rx="5.78" ry="1.62"/>
      <path fill="#C1C1C1" d="M10.16,27.16c-0.02,0.14-0.03,0.32,0.03,0.53c0.42,1.59,3.94,1.97,5.79,1.96c2.22-0.01,5.65-0.58,5.91-2.01
        c0.04-0.22,0-0.41-0.05-0.55c-1.22,0.49-3.26,1.14-5.86,1.15C13.4,28.25,11.38,27.63,10.16,27.16z"/>
    </g>
    
    <ellipse transform="matrix(0.0705 -0.9975 0.9975 0.0705 9.2449 19.7662)" fill="#232626" cx="15.23" cy="4.92" rx="0.26" ry="1.84"/>
    <path fill="none" d="M17.16,4.28c-0.03,0.01-0.77,0.3-1.57,0.05c-0.15-0.05-0.4-0.13-0.42-0.27c-0.01-0.11,0.12-0.19,0.39-0.36
      c0.71-0.48,0.62-0.49,0.84-0.58c0.41-0.17,0.77-0.16,0.94-0.16c0.45,0.01,1.09,0.15,1.11,0.38c0.01,0.08-0.07,0.14-0.42,0.38
      C17.52,4.06,17.27,4.23,17.16,4.28z"/>
  </g>
</svg>
