<svg xmlns="http://www.w3.org/2000/svg" viewBox="0 0 32 32">
  <g fill="none" stroke-linecap="round" stroke-linejoin="round">
    <g stroke="#787878" stroke-width="0.5">
      <path d="M10.43,4.57C9.55,5.88,8.91,6.84,8.81,7a1,1,0,0,0-.1.21h0c-.1.08-.05.26-.05.27s0,7.69,0,18.78a.37.37,0,0,0,.05.17.51.51,0,0,0,.15.15A15.72,15.72,0,0,0,13,28a16.48,16.48,0,0,0,10.14-1.5.26.26,0,0,0,.14-.11.28.28,0,0,0,.05-.19c0-10.75,0-18.45,0-18.65a1,1,0,0,0,0-.26A1.05,1.05,0,0,0,23.22,7c-.11-.17-.67-1.11-1.43-2.42"/>
      <ellipse cx="16.11" cy="4.27" rx="5.78" ry="1.62"/>
      <path d="M8.71,7.21a15.71,15.71,0,0,0,2.53,1,16.36,16.36,0,0,0,4.9.69,17.77,17.77,0,0,0,4.5-.69,19.35,19.35,0,0,0,2.69-1"/>
      <path d="M21.79,27.14c0,1.22-2.62,2.21-5.84,2.21s-5.83-1-5.83-2.21"/>
      <ellipse cx="15.27" cy="4.89" rx="0.24" ry="1.83" transform="translate(9.58 19.87) rotate(-86.98)"/>
      <path d="M18.33,3.48l-1,.73a2.47,2.47,0,0,1-1.49.18h0c-.57-.08-.83-.3-.57-.49l1-.72A2.46,2.46,0,0,1,17.76,3h0C18.33,3.08,18.59,3.3,18.33,3.48Z"/>
    </g>
    <g stroke="#44499E" stroke-width="1">
      <circle cx="13.33" cy="13.41" r="3"/>
      <circle cx="16.93" cy="19.32" r="2.27"/>
      <circle cx="18.35" cy="26.06" r="0.85"/>
      <circle cx="14.67" cy="23.88" r="1.33"/>
    </g>
  </g>
</svg>