<svg xmlns="http://www.w3.org/2000/svg" width="32px" height="32px" viewBox="0 0 32 32">
  <g stroke="#232626" stroke-width="0.75" stroke-linecap="round" stroke-linejoin="round">
    <circle fill="#FFFFFF" cx="16" cy="16" r="11.9"/>
    <circle fill="none" cx="13.1" cy="18.9" r="1.43"/>
    <circle fill="none" cx="13.1" cy="18.9" r="2.7"/>
    <path fill="#E01D43" d="M27.85,14.95
      c-0.94,0.92-2.57,2.29-4.95,3.25c-3.03,1.23-5.72,1.18-7.12,1.05c0.03-0.23,0.1-1.08-0.45-1.88c-0.79-1.15-2.15-1.17-2.23-1.17
      c-1.17,0-1.89,0.78-2,0.9c-0.66,0.73-0.7,1.58-0.7,1.8c-0.89-0.18-2.04-0.51-3.3-1.1c-1.29-0.61-2.28-1.31-3-1.9
      c0.01-1.02,0.15-2.63,0.9-4.43c0.38-0.92,1.53-3.37,4.2-5.23c3.93-2.73,8.13-2.08,8.8-1.97c3.65,0.62,5.89,2.78,6.61,3.53
      C27.32,10.65,27.76,13.95,27.85,14.95z"/>
  </g>
</svg>
