<svg xmlns="http://www.w3.org/2000/svg" viewBox="0 0 32 32">
  <g fill="none" stroke-linecap="round" stroke-linejoin="round" stroke-width="1.2">
    <g stroke="#353535">
      <circle cx="15.91" cy="16" r="11.87"/>
      <path d="M10.36,18.93A12.67,12.67,0,0,1,7,17.88,13.21,13.21,0,0,1,4,16"/>
      <path d="M28,14.81a15.72,15.72,0,0,1-7.08,4,15.5,15.5,0,0,1-5.16.43"/>
      <circle cx="13.03" cy="18.92" r="2.72"/>
    </g>
    <path d="M5.21,15.23A11,11,0,0,1,8,8.81,11.28,11.28,0,0,1,16.71,5.3c5.73.43,8.51,5.33,8.7,5.68" stroke="#e01d43"/>
    <path d="M6.25,16a9.92,9.92,0,0,1,1.9-5.61,9.77,9.77,0,0,1,9.34-3.8,9.79,9.79,0,0,1,5.27,2.83" stroke="#e92b59"/>
    <path d="M7.3,16.74a9,9,0,0,1,1.45-5.16,8.73,8.73,0,0,1,7.46-4,8.08,8.08,0,0,1,3.52,1" stroke="#e8476d"/>
  </g>
</svg>