<svg xmlns="http://www.w3.org/2000/svg" viewBox="0 0 32 32">
  <g fill="none" stroke-linecap="round" stroke-linejoin="round" stroke-width="1">
    <g stroke="#353535">
      <path d="M26.3,12.8c0,0-0.8-3.9-3.1-4h-1.6l-0.5,0.4h-1.5L19,8.9l-6,0l-0.6,0.2h-1.5l-0.5-0.4H8.8c-2.3,0.1-3.1,4-3.1,4C2.7,23.9,7,23.2,7,23.2c0.5,0,0.9-0.1,1.4-0.3c0.6-0.4,1-0.9,1.9-2.6c0.4-0.8,0.8-1.7,1.3-2.9c0.2,0.2,0.6,0.4,0.9,0.5c0.5,0.1,1,0,1.4-0.2h4.6c0.4,0.3,0.9,0.3,1.4,0.2c0.3-0.1,0.6-0.2,0.9-0.5c0.5,1.1,0.9,2.1,1.3,2.9c0.8,1.7,1.2,2.2,1.9,2.6c0.4,0.2,0.9,0.3,1.4,0.4C25.1,23.2,29.4,23.9,26.3,12.8z"/>
      <circle cx="12.7" cy="16.2" r="1.4"/>
      <circle cx="19.2" cy="16.2" r="1.4"/>
      <path d="M10,12.8h0.7l0,0v-0.5l0,0H10l-0.3,0.3L10,12.8z"/>
      <path d="M8,12.8H7.3l0,0v-0.5l0,0H8l0.3,0.3L8,12.8z"/>
      <path d="M9.3,11.5v-0.7l0,0H8.7l0,0v0.7L9,11.8L9.3,11.5z"/>
      <path d="M9.3,13.5v0.7l0,0H8.7l0,0v-0.7L9,13.3L9.3,13.5z"/>
      <circle cx="21.4" cy="12.5" r="0.6"/>
      <circle cx="24.6" cy="12.5" r="0.6"/>
      <circle cx="23" cy="14.2" r="0.6"/>
      <circle cx="23" cy="10.9" r="0.6"/>
      <path d="M18.5,9h-5c-0.5,0-0.8,0.4-0.8,0.8v2.4c0,0.5,0.4,0.8,0.8,0.8h5c0.2,0,0.4-0.1,0.5-0.2c0.2-0.2,0.3-0.4,0.3-0.7V9.8C19.3,9.3,18.9,9,18.5,9z"/>
    </g>
    <polygon stroke="#D58FBA" points="21.3,12.5 21.3,12.5 21.3,12.5"/>
    <polygon stroke="#1CB090" points="23,10.9 23,10.9 23,10.9"/>
    <polygon stroke="#E65125" points="24.6,12.5 24.6,12.5 24.6,12.5"/>
    <polygon stroke="#A2A9D6" points="23,14.2 23,14.2 23,14.2"/>
  </g>
</svg>
