<svg xmlns="http://www.w3.org/2000/svg" viewBox="0 0 32 32">
  <g fill="none" stroke-linecap="round" stroke-linejoin="round">
    <g stroke="#232626" stroke-width="0.5">
      <path fill="#FFFFFF" d="M25.86,11.62c-0.43-0.98-0.9-1.73-1.22-2.19c-0.03,0-0.08,0.01-0.13,0c-0.03,0-0.06-0.01-0.09-0.02c0-0.06-0.01-0.12-0.01-0.18
        c-0.24-0.14-0.73-0.38-1.39-0.41c-0.65-0.03-1.15,0.15-1.4,0.26c-0.01,0.08-0.02,0.17-0.04,0.25c-0.07,0.04-0.13,0.08-0.2,0.11
        c-0.09,0.05-0.18,0.1-0.28,0.15c-0.35,0-0.7,0-1.04,0c-0.06,0.04-0.12,0.08-0.18,0.11c-0.07-0.05-0.14-0.1-0.21-0.15
        c-2.43,0-4.86,0-7.28,0c-0.06,0.05-0.12,0.1-0.19,0.16c-0.03-0.04-0.05-0.08-0.08-0.12c-0.43,0-0.86-0.01-1.3-0.01
        c-0.07-0.05-0.15-0.1-0.23-0.15c-0.09-0.05-0.17-0.1-0.25-0.14c0-0.08-0.01-0.16-0.01-0.24C10.05,8.94,9.63,8.81,9.1,8.8
        c-0.73,0-1.28,0.24-1.55,0.39c0,0.05,0,0.09,0,0.14C7.53,9.35,7.51,9.38,7.48,9.4C7.42,9.46,7.33,9.44,7.32,9.43
        c-0.29,0.4-0.7,1.01-1.09,1.8c-0.7,1.4-0.95,2.76-1.42,5.41c-0.3,1.68-0.37,2.43-0.31,3.32C4.57,21,4.63,21.8,5.26,22.42
        c0.58,0.57,1.57,0.9,2.4,0.6c0.66-0.23,0.99-0.78,1.35-1.38c0.59-0.98,1.23-2.83,1.29-3.17c0.01-0.04,0.02-0.17,0.13-0.28
        c0.05-0.05,0.11-0.08,0.16-0.1c0-0.01,0.05-0.05,0.11-0.05c0.05,0,0.08,0.04,0.09,0.04c0.08,0.07,0.18,0.15,0.32,0.23
        c0.52,0.31,1.01,0.34,1.13,0.34c0.1,0,0.53,0.01,1.03-0.21c0.32-0.14,0.55-0.32,0.69-0.45c1.35,0.01,2.71,0.02,4.06,0.03
        c0.14,0.13,0.38,0.32,0.71,0.47c0.49,0.21,0.92,0.19,1.01,0.19c0.08,0,0.48-0.03,0.93-0.26c0.19-0.1,0.33-0.2,0.43-0.29
        c0-0.01,0.04-0.05,0.11-0.06c0.07,0,0.11,0.04,0.11,0.05c0.05,0.04,0.13,0.09,0.19,0.18c0.09,0.13,0.12,0.25,0.13,0.29
        c0.09,0.37,0.68,1.99,1.11,2.81c0.36,0.69,0.58,1.12,1.09,1.43c0.75,0.45,1.85,0.49,2.61-0.03c0.89-0.61,0.97-1.74,1.05-2.86
        c0.05-0.73-0.01-1.23-0.43-3.45C26.4,12.95,26.12,12.21,25.86,11.62z"/>
      <circle fill="#232626" cx="12.26" cy="16.32" r="1.4"/>
      <circle fill="#232626" cx="19.76" cy="16.32" r="1.4"/>
      <circle fill="#232626" cx="16.06" cy="16.42" r="0.4"/>
      <circle cx="21.46" cy="13.12" r="0.6"/>
      <circle cx="24.89" cy="13.12" r="0.6"/>
      <circle cx="23.21" cy="14.82" r="0.6"/>
      <circle cx="23.21" cy="11.41" r="0.6"/>
      <path fill="#232626" d="M19.41,13.95h-6.7c-0.3,0-0.5-0.2-0.5-0.5v-3.7c0-0.1,0.1-0.2,0.2-0.2h7.3c0.1,0,0.2,0.1,0.2,0.2v3.7
        C19.91,13.65,19.71,13.95,19.41,13.95z"/>
      <path fill="#232626" d="M7.85,12.66h-0.8v0.82h0.8c0.14-0.14,0.27-0.27,0.41-0.41C8.12,12.93,7.99,12.79,7.85,12.66z"/>
      <path fill="#232626" d="M9.66,13.48h0.8v-0.82h-0.8c-0.14,0.14-0.27,0.27-0.41,0.41C9.39,13.2,9.52,13.34,9.66,13.48z"/>
      <path fill="#232626" d="M8.34,13.97v0.8h0.82v-0.8c-0.14-0.14-0.27-0.27-0.41-0.41C8.62,13.7,8.48,13.84,8.34,13.97z"/>
      <path fill="#232626" d="M9.17,12.16v-0.8H8.34v0.8c0.14,0.14,0.27,0.27,0.41,0.41C8.89,12.44,9.03,12.3,9.17,12.16z"/>
    </g>
    <path stroke="#D58FBA" d="M21.46,13.12L21.46,13.12L21.46,13.12z"/>
    <path stroke="#1CB090" d="M23.21,11.41L23.21,11.41L23.21,11.41z"/>
    <path stroke="#E65125" d="M24.89,13.12L24.89,13.12L24.89,13.12z"/>
    <path stroke="#A2A9D6" d="M23.21,14.82L23.21,14.82L23.21,14.82z"/>
  </g>
</svg>
