<svg xmlns="http://www.w3.org/2000/svg" viewBox="0 0 32 32">
  <g fill="none" stroke-miterlimit="10">
      <g stroke="#232626" stroke-width="0.75" stroke-linecap="round" stroke-linejoin="round">
        <path fill="#FFF" d="M21,28.93H11a1.77,1.77,0,0,1-1.77-1.77V4.84a1.85,1.85,0,0,1,.52-1.25A1.79,1.79,0,0,1,11,3.07H21a1.79,1.79,0,0,1,1.25.52,1.85,1.85,0,0,1,.52,1.25V27.16A1.77,1.77,0,0,1,21,28.93Z"/>
        <path d="M16.78,3.07,16,3.58l-.74-.51"/>
      </g>
      <g stroke="#232626" stroke-width="1">
        <line x1="15.01" y1="7.58" x2="16" y2="7.58"/>
        <line x1="16.99" y1="7.58" x2="17.99" y2="7.58"/>
        <line x1="16" y1="8.59" x2="16.99" y2="8.59"/>
        <line x1="16.99" y1="10.55" x2="17.99" y2="10.55"/>
        <line x1="17.99" y1="8.59" x2="18.98" y2="8.59"/>
        <line x1="17.99" y1="7.58" x2="18.98" y2="7.58"/>
        <line x1="13.02" y1="8.59" x2="14.01" y2="8.59"/>
        <line x1="14.01" y1="9.55" x2="15.01" y2="9.55"/>
        <line x1="16.99" y1="9.55" x2="17.99" y2="9.55"/>
        <line x1="15.01" y1="9.55" x2="16" y2="9.55"/>
        <line x1="16" y1="11.55" x2="18.98" y2="11.55"/>
        <line x1="13.02" y1="11.55" x2="14.01" y2="11.55"/>
        <line x1="14.01" y1="10.55" x2="15.01" y2="10.55"/>
        <line x1="15.01" y1="12.54" x2="16" y2="12.54"/>
        <line x1="16.99" y1="12.54" x2="17.99" y2="12.54"/>
        <line x1="13.02" y1="12.54" x2="14.01" y2="12.54"/>
        <line x1="13.02" y1="7.58" x2="14.01" y2="7.58"/>
        <line x1="14.01" y1="7.58" x2="15.01" y2="7.58"/>
      </g>
      <path stroke="#53C2BA" stroke-width="1.2" d="M19.66,21.05H17.5l-1.84-2.76a1.3,1.3,0,0,0-.35-.15,1.25,1.25,0,0,0-.44-.05L16.52,21h-3l-.46-.61h-.5l.65,1-.65,1h.5l.45-.53h2.92L14.79,25a1.54,1.54,0,0,0,.6-.06,1.4,1.4,0,0,0,.37-.19l1.75-2.88h2.15c.44,0,.73-.22.73-.39S20.1,21.05,19.66,21.05Z"/>

  </g>
</svg>