<svg xmlns="http://www.w3.org/2000/svg" viewBox="0 0 32 32">
  <g fill="none" stroke-linecap="round" stroke-linejoin="round">
    <g stroke="#232626" stroke-width="0.75">
      <path fill="#FFFFFF" d="M21.47,10.16c-.42-3.39-2.87-5.66-5.21-5.59a5,5,0,0,0-3.44,1.95A4.94,4.94,0,0,0,9,7.23,5.08,5.08,0,0,0,7.29,12.8a3.16,3.16,0,0,0-2.58.86,3.3,3.3,0,0,0-.4,3.27,4.43,4.43,0,0,0,4.5,2.43H22.57c3.24-.53,5.43-3,5.39-5.39a4.61,4.61,0,0,0-2.77-4.16A4.62,4.62,0,0,0,21.47,10.16Z"/>
      <line x1="9.04" y1="20.4" x2="8.05" y2="23.26"/>
      <line x1="7.6" y1="24.57" x2="6.62" y2="27.43"/>
      <line x1="11.25" y1="19.99" x2="10.69" y2="21.63"/>
      <line x1="10.27" y1="22.83" x2="9.71" y2="24.47"/>
      <line x1="9.28" y1="25.7" x2="8.72" y2="27.35"/>
      <line x1="13.39" y1="20.4" x2="12.4" y2="23.26"/>
      <line x1="11.96" y1="24.57" x2="10.97" y2="27.43"/>
      <line x1="15.61" y1="19.99" x2="15.04" y2="21.63"/>
      <line x1="14.63" y1="22.83" x2="14.06" y2="24.47"/>
      <line x1="13.64" y1="25.7" x2="13.07" y2="27.35"/>
      <line x1="17.74" y1="20.4" x2="16.76" y2="23.26"/>
      <line x1="16.31" y1="24.57" x2="15.32" y2="27.43"/>
      <line x1="19.96" y1="19.99" x2="19.39" y2="21.63"/>
      <line x1="18.98" y1="22.83" x2="18.41" y2="24.47"/>
      <line x1="17.99" y1="25.7" x2="17.42" y2="27.35"/>
      <line x1="22.1" y1="20.4" x2="21.11" y2="23.26"/>
      <line x1="20.66" y1="24.57" x2="19.68" y2="27.43"/>
    </g>
    <path d="M9,18.1H22.5s2.6,0,4.29-3.33" stroke="#8DB3C4" stroke-width="1"/>
  </g>
</svg>