<svg xmlns="http://www.w3.org/2000/svg" viewBox="0 0 32 32">
  <g fill="none" stroke-linecap="round" stroke-linejoin="round">
    <g stroke="#232626" stroke-width="0.25">
      <ellipse cx="13.55" cy="14.93" rx="7.67" ry="2.48"/>
      <path d="M19.37,27.36c0,1.37-2.61,2.48-5.82,2.48s-5.83-1.11-5.83-2.48"/>
      <line x1="5.87" y1="14.93" x2="7.72" y2="27.36"/>
      <line x1="21.22" y1="14.93" x2="19.37" y2="27.36"/>
      <line x1="9.7" y1="6.07" x2="25.59" y2="2.35"/>
      <line x1="26.13" y1="4.09" x2="10.51" y2="6.26"/>
    </g>
    <g stroke="#EEE772" stroke-width="0.5">
      <path d="M12.86,5.78l-.77.61c-.07,0-.94.61-.82,1.31s.9.86,1,.88,1,.28,1.06,1-.78,1.19-.87,1.24-.93.58-.9,1.28,1,1,1.1,1c.69.16,1.11.55,1.1,1,0,.66-.82,1.15-.91,1.2L12,16m1.18-.2.88-.62c.09,0,.9-.53.91-1.19,0-.49-.41-.89-1.1-1.05-.07,0-1.08-.28-1.1-1s.81-1.22.9-1.27.89-.56.87-1.24-1-1-1.06-1-.91-.25-1-.88.75-1.27.82-1.31L14,5.58M10.81,16.29l.88-.62c.09-.05.9-.53.91-1.2,0-.48-.41-.88-1.1-1-.07,0-1.09-.28-1.11-1s.82-1.22.91-1.27.89-.56.86-1.24-1-1-1.06-1-.9-.26-1-.88.75-1.27.82-1.31l.77-.62M9.63,16.48l.88-.61c.09-.06.9-.54.91-1.2,0-.49-.42-.89-1.1-1-.07,0-1.09-.29-1.11-1.05s.82-1.21.91-1.27.89-.56.86-1.24-1-1-1.06-1-.9-.25-1-.88.76-1.27.82-1.31l.78-.62M8.45,16.68l.88-.62c.09,0,.9-.54.91-1.2,0-.48-.42-.88-1.1-1-.07,0-1.09-.28-1.11-1s.82-1.22.91-1.27.89-.57.86-1.24-1-1-1.06-1-.9-.25-1-.88.76-1.27.82-1.31l.78-.61"/>
      <path d="M13.58,16.93A2.12,2.12,0,0,0,12,16.11c-.9.05-1.17,1-1.19,1.1m8-.83a2,2,0,0,0-1.61-.74,1.39,1.39,0,0,0-1,1M10.8,16.1c0-.07.28-1.05,1.19-1.1a2.16,2.16,0,0,1,1.56.81,2.08,2.08,0,0,0,1.52.78,1.36,1.36,0,0,0,1.14-1.05,1.38,1.38,0,0,1,1-1,2,2,0,0,1,1.61.73l.77.72M6.71,14.58a2.94,2.94,0,0,0,.83.87,2.51,2.51,0,0,0,2,.51,2.71,2.71,0,0,0,1.36-1.05c.49-.61.46-.94.79-1s.74-.17,1.56.82a2.09,2.09,0,0,0,1.52.78,1.39,1.39,0,0,0,1.14-1.06,1.39,1.39,0,0,1,1-1,2,2,0,0,1,1.61.74l.77.72M7.56,14.12A2,2,0,0,0,9,15a1.28,1.28,0,0,0,1.19-1.1c0-.07.28-1,1.19-1.11a2.19,2.19,0,0,1,1.56.82,2,2,0,0,0,1.52.78,1.39,1.39,0,0,0,1.14-1.06"/>
    </g>
  </g>
</svg>