<svg xmlns="http://www.w3.org/2000/svg" width="32px" height="32px" viewBox="0 0 32 32">
  <g>
    <g fill="#FFFFFF" stroke="#232626" stroke-width="0.75" stroke-linecap="round" stroke-linejoin="round">
      <path d="M5.87,14.83l1.85,12.43c0,1.37,2.62,2.48,5.83,2.48c3.21,0,5.82-1.11,5.82-2.48c0.62-4.14,1.23-8.29,1.85-12.43
        C16.1,14.83,10.99,14.83,5.87,14.83z"/>
      <ellipse cx="13.55" cy="14.83" rx="7.67" ry="2.48"/>
    </g>
    <g fill="none" stroke="#A5A5A5" stroke-width="0.75" stroke-linecap="round" stroke-linejoin="round">
      <line x1="9.7" y1="5.97" x2="25.59" y2="2.25"/>
      <line x1="26.13" y1="3.99" x2="10.51" y2="6.16"/>
    </g>
    <g fill="none" stroke="#B69124" stroke-width="0.5" stroke-linecap="round" stroke-miterlimit="10">
      <line x1="15.49" y1="28.02" x2="15.58" y2="26.52"/>
      <line x1="15.97" y1="18.7" x2="15.88" y2="20.24"/>
      <line x1="14.71" y1="20.35" x2="14.75" y2="18.82"/>
      <line x1="14.53" y1="28.11" x2="14.58" y2="26.62"/>
      <line x1="13.58" y1="28.14" x2="13.58" y2="26.65"/>
      <line x1="13.58" y1="18.86" x2="13.58" y2="20.38"/>
      <line x1="12.41" y1="18.82" x2="12.45" y2="20.35"/>
      <line x1="12.63" y1="28.11" x2="12.58" y2="26.62"/>
      <line x1="18.71" y1="25.56" x2="18.5" y2="27.05"/>
      <line x1="19.66" y1="19.02" x2="19.9" y2="17.41"/>
      <line x1="17.09" y1="20.03" x2="17.23" y2="18.49"/>
      <line x1="16.46" y1="27.85" x2="16.59" y2="26.36"/>
      <line x1="17.45" y1="27.58" x2="17.63" y2="26.08"/>
      <line x1="18.54" y1="18.13" x2="18.35" y2="19.69"/>
      <line x1="7.26" y1="17.41" x2="7.5" y2="19.02"/>
      <line x1="8.66" y1="27.05" x2="8.45" y2="25.56"/>
      <line x1="8.62" y1="18.13" x2="8.81" y2="19.69"/>
      <line x1="9.71" y1="27.58" x2="9.53" y2="26.08"/>
      <line x1="10.7" y1="27.85" x2="10.57" y2="26.36"/>
      <line x1="9.93" y1="18.49" x2="10.07" y2="20.03"/>
      <line x1="11.67" y1="28.02" x2="11.58" y2="26.52"/>
      <line x1="11.19" y1="18.7" x2="11.28" y2="20.24"/>
    </g>
    <g fill="none" stroke="#EEE772" stroke-width="0.5" stroke-linecap="round" stroke-linejoin="round">
      <path d="M12.86,5.68l-0.77,0.61c-0.07,0-0.94,0.61-0.82,1.31c0.12,0.7,0.9,0.86,1,0.88s1,0.28,1.06,1s-0.78,1.19-0.87,1.24
        s-0.93,0.58-0.9,1.28s1,1,1.1,1c0.69,0.16,1.11,0.55,1.1,1c0,0.66-0.82,1.15-0.91,1.2L12,15.9 M13.18,15.7l0.88-0.62
        c0.09,0,0.9-0.53,0.91-1.19c0-0.49-0.41-0.89-1.1-1.05c-0.07,0-1.08-0.28-1.1-1s0.81-1.22,0.9-1.27s0.89-0.56,0.87-1.24s-1-1-1.06-1
        s-0.91-0.25-1-0.88s0.75-1.27,0.82-1.31L14,5.48 M10.81,16.19l0.88-0.62c0.09-0.05,0.9-0.53,0.91-1.2c0-0.48-0.41-0.88-1.1-1
        c-0.07,0-1.09-0.28-1.11-1s0.82-1.22,0.91-1.27s0.89-0.56,0.86-1.24s-1-1-1.06-1s-0.9-0.26-1-0.88s0.75-1.27,0.82-1.31l0.77-0.62
        M9.63,16.38l0.88-0.61c0.09-0.06,0.9-0.54,0.91-1.2c0-0.49-0.42-0.89-1.1-1c-0.07,0-1.09-0.29-1.11-1.05s0.82-1.21,0.91-1.27
        s0.89-0.56,0.86-1.24s-1-1-1.06-1s-0.9-0.25-1-0.88s0.76-1.27,0.82-1.31l0.78-0.62 M8.45,16.58l0.88-0.62c0.09,0,0.9-0.54,0.91-1.2
        c0-0.48-0.42-0.88-1.1-1c-0.07,0-1.09-0.28-1.11-1s0.82-1.22,0.91-1.27s0.89-0.57,0.86-1.24s-1-1-1.06-1s-0.9-0.25-1-0.88
        S8.5,7.1,8.56,7.06l0.78-0.61"/>
      <path d="M13.58,16.83c-0.38-0.49-0.96-0.79-1.58-0.82c-0.9,0.05-1.17,1-1.19,1.1 M18.81,16.28c-0.39-0.48-0.99-0.76-1.61-0.74
        c-0.49,0.13-0.87,0.51-1,1 M10.8,16c0-0.07,0.28-1.05,1.19-1.1c0.61,0.04,1.18,0.33,1.56,0.81c0.37,0.47,0.93,0.75,1.52,0.78
        c0.56-0.08,1.02-0.5,1.14-1.05c0.12-0.49,0.51-0.88,1-1c0.62-0.02,1.22,0.25,1.61,0.73l0.77,0.72 M6.71,14.48c0.21,0.34,0.5,0.64,0.83,0.87
        c0.56,0.45,1.29,0.63,2,0.51c0.56-0.19,1.03-0.56,1.36-1.05c0.49-0.61,0.46-0.94,0.79-1s0.74-0.17,1.56,0.82c0.37,0.46,0.93,0.75,1.52,0.78
        c0.56-0.09,1.01-0.51,1.14-1.06c0.13-0.49,0.51-0.87,1-1c0.62-0.02,1.22,0.26,1.61,0.74l0.77,0.72 M7.56,14.02
        C7.89,14.52,8.41,14.84,9,14.9c0.61-0.04,1.11-0.5,1.19-1.1c0-0.07,0.28-1,1.19-1.11c0.61,0.04,1.18,0.34,1.56,0.82
        c0.36,0.47,0.92,0.76,1.52,0.78c0.56-0.09,1.01-0.51,1.14-1.06"/>
    </g>
  </g>
</svg>
