<svg xmlns="http://www.w3.org/2000/svg" viewBox="0 0 32 32">
  <g fill="none" stroke-linecap="round" stroke-linejoin="round" stroke-width="1.2">
    <g stroke="#353535">
      <path d="M6.2,9.14V25.93a2.48,2.48,0,0,0,.36.8,2.55,2.55,0,0,0,1.08.87c3.12,1.47,9.21,2.13,9.21,2.13a7.08,7.08,0,0,0,1.08,0,5.84,5.84,0,0,0,1.18-.16,24.52,24.52,0,0,0,6.27-2.49,1.57,1.57,0,0,0,.64-.59,1.71,1.71,0,0,0,.19-.75V8.71"/>
      <path d="M15.35,11.34,2.92,8.44C1.2,8,.82,7.26,2.09,6.7l9.11-4a10.37,10.37,0,0,1,5.45-.27L29.08,5.35c1.72.41,2.1,1.19.83,1.74l-9.11,4A10.26,10.26,0,0,1,15.35,11.34Zm6.06-6.8c-4.07-1-9.8-.66-12.79.64s-2.11,3.13,2,4.08,9.8.66,12.79-.64S25.49,5.49,21.41,4.54Z"/>
    </g>
    <path d="M15.9,25c-1.67-.36-3.45-.82-5.31-1.39Q8.91,23,7.38,22.48l0,3a1,1,0,0,0,0,.53,1.21,1.21,0,0,0,.87.66c.68.24,1.4.46,2.15.68a37.28,37.28,0,0,0,5.6,1.13,7.18,7.18,0,0,0,1.53.16,7,7,0,0,0,1.87-.27c.7-.21,1.43-.45,2.18-.73,1.3-.49,2.48-1,3.55-1.54l-.13-3.8-5.81,2.31A4.24,4.24,0,0,1,15.9,25Z" stroke="#4FB95D"/>
    <path d="M25,21l-6.74,2.7a2.91,2.91,0,0,1-1.78.13c-1.6-.34-3.28-.76-5.05-1.28-1.43-.43-2.78-.88-4-1.34" stroke="#018E64"/>
  </g>
</svg>