<svg xmlns="http://www.w3.org/2000/svg" width="32px" height="32px" viewBox="0 0 32 32">
  <g stroke-linecap="round" stroke-linejoin="round">
    <g fill="#FFFFFF" stroke="#232626" stroke-width="0.75">
      <path d="M6.21,9.22
        c0,5.57-0.01,11.15-0.01,16.72c0.05,0.21,0.15,0.5,0.36,0.8c0.37,0.53,0.85,0.77,1.08,0.87c3.07,0.71,6.14,1.42,9.21,2.13
        c0.27,0.04,0.58,0.06,0.94,0.05c0.53-0.02,0.97-0.11,1.32-0.21c2.09-0.83,4.18-1.66,6.27-2.49c0.12-0.06,0.43-0.22,0.64-0.59
        c0.18-0.31,0.19-0.62,0.19-0.75c0.01-0.67,0.01-7.57,0-17.03c-0.2-0.71-0.58-1.7-1.38-2.59c-2.01-2.24-5.13-2.2-8.81-2.16
        c-3.85,0.05-7.49,0.09-9.08,2.56C6.35,7.47,6.22,8.47,6.21,9.22z"/>
      <path d="M15.35,11.35
        L2.92,8.45C1.2,8.01,0.82,7.27,2.09,6.71l9.11-4c1.76-0.57,3.64-0.67,5.45-0.27l12.43,2.92c1.72,0.41,2.1,1.19,0.83,1.74l-9.11,4
        C19.04,11.67,17.16,11.76,15.35,11.35z M21.41,4.55c-4.07-1-9.8-0.66-12.79,0.64s-2.11,3.13,2,4.08s9.8,0.66,12.79-0.64
        S25.49,5.5,21.41,4.55z"/>
    </g>
    <g fill="none" stroke-width="1.2">
      <path stroke="#4FB95D" d="M16.6,25.07
        c-3.14-0.88-6.28-1.75-9.41-2.63c0.01,1.09,0.02,2.19,0.03,3.28c0.04,0.13,0.17,0.48,0.52,0.74c0.24,0.18,0.48,0.23,0.57,0.25
        c0.59,0.13,3.84,0.89,8.3,1.93c0.27,0.08,0.71,0.18,1.23,0.15c0.69-0.03,1.19-0.26,1.4-0.35c0.93-0.41,2.82-1.14,5.38-2.13
        c0.07-0.02,0.24-0.07,0.38-0.22c0.22-0.25,0.19-0.56,0.19-0.61c0-1.09,0.01-2.17,0.01-3.26c-1.98,0.88-3.97,1.76-5.95,2.64
        c-0.4,0.1-0.88,0.19-1.45,0.22C17.35,25.12,16.95,25.1,16.6,25.07z"/>
      <path fill="none" stroke="#018E64" d="M25.19,20.89c-1.9,0.85-3.99,1.82-5.89,2.67c-0.41,0.16-0.99,0.34-1.71,0.36
        c-0.31,0.01-0.6-0.01-0.84-0.04c-3.19-0.9-6.38-1.8-9.56-2.69"/>
    </g>
  </g>
</svg>
