<svg xmlns="http://www.w3.org/2000/svg" width="16" height="16" viewBox="0 0 16 16">
  <path fill="#000" d="M1,12.5c0-3,0-6,0-9C1.3,2.1,2.1,1.3,3.5,1c3,0,6,0,9,0c1.4,0.3,2.2,1.1,2.5,2.5c0,3,0,6,0,9c-0.3,1.4-1.1,2.2-2.5,2.5
    c-3,0-6,0-9,0C2.1,14.7,1.3,13.9,1,12.5z M8.6,12.1c0-0.1,0-0.2,0-0.3c0-0.9,0-1.9,0-2.8c0-0.3,0.1-0.6,0.2-0.9
    C9,7.6,9.4,7.4,9.9,7.4c0.5,0,0.8,0.3,0.9,0.8c0.1,0.2,0.1,0.5,0.1,0.7c0,0.8,0,1.6,0,2.4c0,0.2,0,0.5,0,0.7c0.6,0,1.2,0,1.7,0
    c0-1.4,0-2.9,0-4.3c0-1-0.5-1.7-1.5-2c-1-0.3-1.8,0-2.5,0.8c0,0,0,0-0.1,0c0-0.3,0-0.6,0-0.9c-0.6,0-1.2,0-1.7,0c0,2.1,0,4.3,0,6.4
    C7.4,12.1,8,12.1,8.6,12.1z M3.9,5.7c0,2.1,0,4.3,0,6.4c0.6,0,1.1,0,1.7,0c0-2.1,0-4.3,0-6.4C5.1,5.7,4.5,5.7,3.9,5.7z M5.8,3.9
    c0-0.6-0.5-1-1-1c-0.6,0-1,0.5-1,1s0.5,1,1,1C5.4,4.9,5.8,4.5,5.8,3.9z"/>
</svg>
